<?xml version="1.0" standalone="no"?>
<!DOCTYPE svg PUBLIC "-//W3C//DTD SVG 20010904//EN"
 "http://www.w3.org/TR/2001/REC-SVG-20010904/DTD/svg10.dtd">
<svg version="1.0" xmlns="http://www.w3.org/2000/svg"
 width="867.051219pt" height="906.211427pt" viewBox="0 0 867.051219 906.211427"
 preserveAspectRatio="xMidYMid meet">
<metadata>
Created by potrace 1.12, written by Peter Selinger 2001-2015
</metadata>
<g transform="translate(-92.399492,957.871962) scale(0.100000,-0.100000)"
fill="#000000" stroke="none">
<path d="M5550 9564 c-162 -43 -302 -168 -361 -324 -30 -79 -42 -186 -29 -266
13 -90 75 -216 138 -283 l48 -51 -49 -78 c-28 -42 -127 -198 -222 -347 -267
-420 -278 -436 -286 -428 -4 4 -58 96 -120 203 -61 107 -115 200 -119 205 -13
17 -121 206 -170 296 l-46 86 43 49 c24 27 56 74 71 104 24 49 27 66 27 155 0
92 -3 106 -32 167 -124 263 -442 329 -650 135 -85 -80 -123 -157 -130 -265 -8
-110 9 -169 73 -263 l52 -77 -91 -271 c-51 -149 -94 -271 -97 -270 -3 0 -87
110 -187 244 l-181 244 25 62 c31 78 39 152 23 231 -13 70 -27 100 -77 175
-83 122 -226 191 -376 181 -216 -14 -391 -183 -413 -399 -13 -133 32 -247 143
-357 l73 -73 15 -177 c8 -97 19 -240 25 -317 6 -77 20 -241 31 -365 29 -341
38 -441 50 -605 6 -82 15 -166 21 -185 16 -52 50 -92 121 -141 l64 -43 -70
-81 c-529 -610 -808 -1338 -784 -2044 3 -91 13 -216 22 -278 13 -95 80 -382
100 -435 4 -11 2 -19 -6 -22 -417 -125 -687 -317 -903 -641 -160 -239 -224
-439 -233 -724 -6 -171 2 -249 38 -396 75 -298 280 -612 537 -820 l62 -50 -83
-18 c-101 -22 -149 -46 -161 -80 -8 -21 -6 -31 10 -48 26 -28 45 -38 124 -60
154 -42 295 -54 675 -54 333 0 448 7 527 31 13 4 16 1 12 -10 -9 -24 41 -83
94 -110 113 -57 367 -112 657 -142 220 -23 848 -23 1095 -1 190 18 369 46 495
77 92 24 201 73 217 100 9 14 17 16 42 9 134 -39 907 -63 1237 -40 357 26 641
80 804 155 l52 23 112 -28 c220 -56 305 -64 666 -64 346 1 488 10 661 46 107
22 167 49 191 86 14 21 13 25 -14 52 -31 30 -101 56 -183 67 l-48 6 99 80
c169 135 311 318 412 528 268 557 163 1155 -282 1613 -177 182 -411 323 -657
396 l-72 21 29 91 c40 128 75 292 95 439 22 167 14 525 -14 680 -90 485 -265
884 -551 1258 -39 51 -71 94 -71 96 0 2 10 6 23 10 33 8 101 59 130 98 20 26
50 130 142 493 164 646 251 987 280 1090 12 42 21 53 52 70 54 28 130 101 169
160 192 300 -77 707 -428 647 -260 -45 -419 -291 -353 -545 l15 -56 -48 -53
c-26 -29 -78 -87 -117 -129 -38 -41 -103 -113 -144 -158 -40 -45 -75 -81 -76
-79 -2 2 -24 116 -49 253 -26 138 -49 259 -51 270 -3 13 14 38 54 80 32 33 71
85 87 115 27 51 29 64 29 160 0 99 -2 110 -33 172 -43 87 -138 178 -218 208
-160 59 -352 2 -457 -136 -57 -75 -80 -144 -81 -244 -1 -87 15 -138 70 -221
l17 -27 -257 -356 c-142 -197 -259 -356 -261 -354 -1 2 -48 100 -103 218 -55
118 -114 242 -130 275 -16 33 -39 83 -52 110 -12 28 -49 106 -81 174 -57 120
-68 151 -51 151 17 0 115 103 152 161 140 217 102 491 -94 666 -63 56 -155
106 -226 122 -63 15 -185 12 -250 -5z m218 -310 c43 -17 97 -67 118 -106 85
-163 -25 -347 -209 -348 -96 0 -164 41 -206 125 -45 91 -38 179 22 256 62 82
180 113 275 73z m-1625 -210 c46 -23 66 -44 89 -88 41 -80 19 -181 -50 -234
-31 -24 -45 -27 -108 -27 -58 0 -78 4 -101 21 -88 65 -108 195 -42 278 47 60
146 83 212 50z m-1189 -161 c56 -39 86 -95 86 -160 0 -65 -13 -99 -53 -141
-79 -82 -239 -62 -295 36 -36 64 -39 120 -9 184 51 112 174 149 271 81z m4341
-86 c67 -38 106 -130 85 -206 -37 -139 -223 -177 -307 -63 -68 92 -45 215 51
273 44 27 120 25 171 -4z m1106 -284 c86 -46 122 -157 80 -248 -22 -48 -44
-69 -94 -90 -156 -65 -301 86 -240 250 14 39 29 57 67 83 62 41 118 43 187 5z
m-2604 -370 c86 -175 209 -430 274 -567 66 -137 129 -261 141 -274 52 -56 145
-76 216 -46 52 21 82 52 180 184 487 657 515 693 525 669 4 -13 37 -168 72
-343 36 -176 69 -334 75 -352 14 -42 78 -100 125 -113 78 -21 156 20 275 145
361 379 453 474 456 471 2 -2 -5 -30 -16 -63 -17 -49 -67 -224 -169 -599 -14
-52 -21 -62 -51 -77 -41 -20 -418 -118 -570 -148 -872 -172 -1913 -152 -2890
56 -443 94 -1002 273 -1352 432 l-66 30 -6 53 c-12 98 -56 712 -53 716 2 2 39
-43 82 -99 411 -536 479 -619 529 -645 67 -35 181 -6 228 57 10 14 69 176 132
361 62 185 118 343 123 353 8 14 12 15 20 4 10 -13 218 -367 386 -658 153
-264 184 -307 245 -337 43 -21 61 -24 99 -19 86 11 123 44 216 184 78 117 458
702 566 869 25 40 47 73 49 73 2 0 74 -143 159 -317z m-2552 -1026 c681 -275
1465 -447 2320 -508 233 -17 944 -17 1110 0 352 35 825 113 1040 171 61 16
113 30 116 30 13 0 -62 -275 -78 -287 -17 -13 -262 -97 -267 -92 -3 4 18 129
29 171 l7 27 -69 -20 c-153 -45 -436 -109 -568 -129 -77 -12 -164 -27 -194
-33 l-54 -12 -60 -97 c-55 -88 -64 -97 -96 -102 -159 -25 -786 -34 -1076 -16
-174 11 -409 34 -520 51 -536 80 -868 163 -1320 331 -133 50 -394 168 -445
202 l-36 24 -12 148 c-16 191 -15 218 1 211 6 -3 84 -35 172 -70z m180 -808
c150 -68 429 -162 637 -215 362 -91 858 -172 1268 -205 201 -17 860 -17 1050
-1 398 34 779 100 1088 188 29 8 51 -11 155 -141 248 -308 414 -654 491 -1024
64 -305 63 -646 -4 -936 l-18 -80 -1 70 c-3 156 -33 352 -73 470 -28 82 -90
201 -134 255 l-37 45 7 -40 c3 -22 11 -98 17 -169 16 -203 -9 -373 -78 -524
l-24 -54 24 -37 c118 -179 142 -371 72 -573 -68 -194 -238 -407 -440 -550
-272 -193 -601 -240 -825 -116 -30 17 -68 42 -84 57 l-28 26 6 -48 c10 -66 -9
-150 -50 -224 l-35 -63 -5 -217 c-4 -152 -10 -230 -20 -259 -38 -109 -178
-159 -245 -88 -23 24 -24 34 -29 182 -4 122 -9 164 -22 189 -53 96 -203 97
-255 1 -14 -26 -18 -67 -23 -203 -6 -197 -15 -220 -95 -251 -53 -20 -142 -15
-181 11 -56 36 -64 66 -64 235 0 131 -3 162 -20 197 -49 110 -208 112 -262 3
-15 -29 -18 -63 -18 -193 0 -222 -18 -255 -143 -264 -51 -4 -70 0 -106 19 -80
41 -85 56 -91 246 -6 180 -13 205 -68 246 -38 29 -119 32 -160 7 -60 -38 -68
-64 -76 -238 -7 -171 -13 -191 -65 -213 -60 -25 -136 8 -186 80 l-30 43 -6
231 -5 231 -44 83 c-41 78 -44 87 -44 167 -1 80 -7 103 -19 71 -9 -24 -134
-88 -210 -108 -110 -28 -190 -32 -296 -13 -114 20 -162 36 -266 87 -126 62
-212 125 -315 228 -106 106 -172 200 -230 323 -56 119 -73 194 -74 317 -1 126
21 209 85 314 36 61 41 73 31 95 -6 14 -22 53 -35 86 -47 110 -62 213 -61 400
1 94 6 189 11 213 6 23 9 42 7 42 -8 0 -68 -96 -99 -158 -72 -146 -113 -330
-122 -552 l-7 -145 -17 75 c-54 226 -69 563 -35 808 20 147 81 391 131 528
119 317 328 663 549 904 71 78 162 160 177 160 3 0 37 -14 74 -31z m-1032
-3004 c19 -40 24 -57 15 -60 -7 -2 -38 -9 -68 -15 -201 -44 -391 -149 -535
-294 -173 -174 -273 -390 -291 -626 -5 -67 -3 -93 10 -124 9 -21 17 -48 17
-60 1 -11 5 29 9 90 30 441 281 757 715 899 28 9 84 20 125 25 62 6 77 5 85
-8 6 -8 41 -63 79 -121 141 -217 299 -385 492 -519 110 -76 306 -171 417 -202
47 -12 47 -13 46 -54 l-1 -41 -12 40 c-12 39 -13 38 -10 -35 2 -41 0 -64 -3
-50 -3 14 -9 30 -15 37 -16 20 -28 83 -15 83 6 0 8 2 5 5 -3 3 -16 1 -29 -4
-17 -7 -19 -10 -6 -10 9 -1 17 -6 17 -12 0 -6 -7 -8 -16 -5 -9 3 -25 6 -37 6
-18 0 -19 2 -7 11 12 7 8 9 -15 7 -23 -2 -30 -8 -30 -25 0 -12 -13 -35 -29
-52 -27 -28 -25 -37 6 -32 4 0 5 -5 2 -12 -2 -7 3 -22 13 -33 20 -22 27 -34
73 -111 47 -79 51 -103 28 -154 -57 -128 -169 -250 -357 -390 -201 -150 -213
-164 -236 -264 -11 -46 -14 -50 -53 -61 -22 -7 -93 -18 -156 -25 -401 -43
-804 156 -1043 514 -75 112 -135 243 -164 361 -30 117 -37 336 -14 447 48 238
152 430 330 604 145 143 326 248 523 305 102 28 104 28 135 -35z m6006 19
c235 -73 438 -205 582 -380 87 -105 99 -124 153 -230 209 -417 125 -917 -212
-1261 -176 -180 -376 -285 -633 -334 -80 -15 -293 -15 -381 0 -36 6 -96 20
-132 31 l-65 20 -7 48 c-13 88 -41 126 -198 256 -61 51 -139 121 -174 156
-157 159 -252 372 -252 566 l0 83 43 11 c391 101 770 400 997 788 23 39 46 72
50 72 4 0 54 -12 111 -26 201 -50 409 -173 521 -309 142 -171 201 -333 200
-555 0 -268 -100 -474 -326 -675 -21 -19 -121 -83 -151 -97 -16 -8 -29 -20
-27 -26 1 -7 -2 -12 -7 -12 -4 0 -6 -11 -3 -25 2 -14 1 -44 -2 -68 -5 -35 -12
-46 -34 -55 l-27 -11 30 6 c30 6 105 40 180 83 146 83 294 239 377 397 82 159
113 284 111 463 -1 154 -31 280 -99 417 -137 277 -407 493 -704 564 -55 13
-100 28 -100 32 0 19 43 107 53 107 6 0 63 -16 126 -36z m-4620 -1074 l24 0
-8 -112 c-5 -62 -8 -125 -8 -140 0 -15 -3 -25 -7 -23 -9 6 -56 -153 -53 -178
2 -10 -1 -16 -6 -13 -5 3 -12 -1 -15 -10 -3 -8 -2 -12 4 -9 6 3 7 -1 4 -9 -3
-9 -9 -16 -13 -16 -4 0 -15 -13 -24 -30 -10 -16 -15 -30 -11 -30 4 0 -1 -10
-12 -22 -36 -42 -50 -63 -36 -54 11 7 11 4 0 -13 -7 -12 -16 -21 -20 -21 -5 0
-8 -4 -8 -9 0 -18 -127 -144 -201 -201 -42 -31 -120 -81 -172 -110 -89 -49
-95 -55 -85 -74 11 -20 10 -20 -9 -4 -10 10 -33 20 -49 24 -26 5 -32 2 -42
-21 -15 -32 -15 -38 -2 -30 5 3 18 1 27 -4 16 -9 15 -11 -7 -11 -14 -1 -19 -4
-12 -7 6 -2 10 -9 6 -14 -3 -5 -1 -9 5 -9 5 0 13 5 16 10 12 20 33 11 28 -12
-4 -22 -4 -22 11 -4 11 14 23 17 46 12 19 -3 29 -2 25 4 -8 13 38 13 51 1 14
-15 324 -68 464 -80 355 -29 783 -21 1050 20 74 11 142 22 150 22 8 1 61 -11
117 -28 l103 -30 0 -122 c0 -103 -2 -123 -15 -123 -12 0 -15 19 -15 115 0 66
-4 115 -10 115 -5 0 -32 -5 -60 -11 l-50 -11 0 -118 0 -118 -75 -11 c-126 -18
-115 -27 -115 99 l0 110 -60 0 -60 0 0 -119 0 -119 -67 -6 c-38 -4 -87 -8
-110 -11 l-43 -5 0 59 c0 32 -3 86 -6 120 l-7 61 -36 0 c-82 0 -81 1 -81 -126
l0 -114 -120 0 -120 0 0 115 0 115 -60 0 -60 0 0 -116 0 -117 -77 7 c-42 3
-91 6 -109 6 l-33 0 -3 118 -3 117 -57 3 -58 3 0 -109 c0 -60 -2 -111 -5 -114
-3 -3 -27 -2 -53 3 -26 4 -68 10 -94 14 l-48 6 0 114 c0 63 -4 116 -9 119 -4
3 -34 8 -65 12 l-56 7 0 -112 0 -113 -32 7 c-18 4 -36 9 -40 12 -5 2 -8 55 -8
118 l0 113 -47 16 c-82 28 -80 31 -75 -94 3 -60 2 -110 -1 -110 -3 0 -18 5
-32 12 l-25 11 0 159 c0 150 1 160 24 196 13 21 80 84 148 139 335 272 477
507 495 822 l6 103 36 -6 c20 -3 47 -6 60 -6z m3125 -16 c3 -9 6 -36 6 -60 0
-60 26 -183 55 -259 74 -197 167 -325 391 -536 68 -63 120 -126 112 -134 -5
-6 -145 81 -208 128 -208 159 -358 371 -424 600 -24 82 -48 252 -39 270 2 4
26 7 53 7 34 0 50 -4 54 -16z m-2683 -681 c64 -38 153 -63 225 -63 l51 0 7
-112 c5 -89 11 -119 26 -140 l20 -27 -33 -5 c-123 -19 -694 -12 -773 10 -19 5
-13 13 51 79 87 89 159 192 221 314 l46 92 53 -58 c29 -32 77 -72 106 -90z
m2390 54 c11 -21 17 -43 13 -50 -4 -7 -4 -9 1 -5 4 5 35 -29 68 -75 69 -93
221 -250 285 -292 23 -15 42 -31 42 -35 0 -4 -30 -12 -67 -18 -193 -33 -266
-37 -728 -36 -451 0 -478 1 -666 27 -108 14 -208 31 -223 37 l-28 10 4 120 3
121 -35 8 c-19 5 -50 13 -69 16 l-34 7 33 14 c18 8 55 30 82 49 26 19 50 35
53 35 3 0 28 -15 55 -34 27 -19 73 -42 102 -52 68 -23 196 -23 258 1 25 9 63
23 85 32 22 8 46 20 53 26 17 13 92 10 110 -5 7 -6 15 -8 19 -4 3 3 0 6 -7 6
-7 0 -11 2 -8 5 2 3 20 -2 38 -11 48 -24 362 -14 413 14 18 9 32 23 29 30 -2
7 1 12 6 12 6 0 12 -6 14 -12 3 -9 10 -8 23 5 13 13 14 18 4 17 -8 -1 -27 -2
-42 -1 l-29 1 49 54 c53 60 54 60 94 -17z m-1884 -79 c33 -32 33 -32 33 -130
0 -54 -2 -98 -6 -98 -3 0 -22 10 -43 22 l-39 22 -4 96 c-4 85 2 120 20 120 3
0 21 -14 39 -32z m453 -228 l0 -119 -47 14 c-27 8 -51 15 -55 15 -9 0 -11 171
-2 194 4 12 20 16 55 16 l49 0 0 -120z m80 -400 c0 -47 -4 -80 -10 -80 -6 0
-10 33 -10 80 0 47 4 80 10 80 6 0 10 -33 10 -80z"/>
<path d="M4065 7617 c-114 -65 -112 -233 4 -294 72 -38 147 -25 203 34 52 55
61 119 27 190 -41 86 -149 118 -234 70z"/>
<path d="M5475 7483 c-155 -81 -165 -294 -18 -380 83 -48 206 -31 269 39 55
60 72 161 39 231 -21 45 -72 97 -112 113 -43 19 -141 17 -178 -3z"/>
<path d="M6862 7419 c-50 -25 -77 -60 -94 -122 -11 -41 -10 -52 8 -93 48 -116
179 -148 275 -67 40 34 61 77 61 128 0 128 -136 212 -250 154z"/>
<path d="M3936 4970 c-148 -27 -270 -93 -386 -209 -95 -95 -144 -173 -186
-297 -25 -72 -27 -92 -27 -224 0 -132 2 -152 27 -224 42 -124 91 -202 186
-297 95 -96 188 -153 310 -191 108 -33 312 -33 420 0 125 39 214 95 315 196
73 74 98 108 131 176 67 137 78 186 78 340 0 154 -11 203 -78 340 -34 70 -58
102 -136 180 -76 76 -112 103 -180 138 -47 23 -110 50 -140 58 -66 18 -266 26
-334 14z"/>
<path d="M6386 4910 c-148 -27 -270 -93 -386 -209 -95 -95 -144 -173 -186
-297 -25 -72 -27 -92 -27 -224 0 -132 2 -152 27 -224 42 -124 91 -202 186
-297 95 -96 188 -153 310 -191 108 -33 312 -33 420 0 125 39 214 95 315 196
73 74 98 108 131 176 67 137 78 186 78 340 0 154 -11 203 -78 340 -34 70 -58
102 -136 180 -76 76 -112 103 -180 138 -47 23 -110 50 -140 58 -66 18 -266 26
-334 14z"/>
<path d="M5253 3790 c-18 -10 -39 -29 -47 -42 -8 -13 -81 -171 -162 -353 -117
-264 -147 -339 -147 -376 -2 -124 131 -196 241 -129 46 28 60 56 123 239 32
91 58 164 58 161 3 -23 112 -325 127 -351 27 -47 97 -82 148 -74 119 18 174
117 127 230 -11 28 -83 190 -159 360 -120 269 -143 313 -172 333 -41 27 -94
28 -137 2z"/>
<path d="M2297 2845 c-21 -7 -41 -16 -45 -20 -3 -3 4 -46 17 -96 13 -49 22
-91 20 -92 -2 -1 -26 -13 -52 -27 -116 -60 -179 -150 -179 -257 0 -77 25 -135
77 -181 66 -58 95 -64 338 -71 l219 -6 24 -28 c13 -15 24 -39 24 -51 0 -60
-87 -114 -198 -123 -90 -7 -129 0 -185 38 l-47 31 -52 -16 c-107 -31 -124 -69
-61 -132 55 -55 149 -95 241 -103 l76 -6 22 -88 c12 -48 27 -94 34 -102 16
-19 63 -19 100 0 36 19 38 42 10 139 -11 38 -19 71 -17 72 1 1 33 17 71 35
200 97 265 296 143 436 -62 71 -86 77 -334 83 -205 5 -224 7 -250 26 -42 31
-44 86 -5 123 63 58 203 70 288 25 58 -31 97 -28 155 11 44 29 48 50 18 89
-43 55 -148 101 -250 110 -35 3 -65 5 -66 6 -2 0 -3 5 -3 11 0 27 -42 149 -56
164 -19 18 -28 18 -77 0z"/>
<path d="M3183 2286 c17 -17 47 -49 65 -69 l32 -38 0 33 c0 23 -3 29 -9 19 -7
-11 -17 -6 -45 24 -20 21 -35 43 -33 49 3 6 -6 12 -19 12 -23 2 -22 1 9 -30z"/>
<path d="M3370 2290 c8 -5 24 -10 35 -10 17 0 17 2 5 10 -8 5 -24 10 -35 10
-17 0 -17 -2 -5 -10z"/>
<path d="M8373 2808 c-11 -13 -34 -49 -52 -80 l-32 -56 -92 5 c-105 6 -152 -4
-217 -45 -70 -45 -104 -101 -108 -182 -7 -118 39 -178 242 -315 94 -63 136
-105 136 -137 0 -11 -14 -33 -31 -50 -29 -29 -33 -30 -98 -26 -108 8 -200 68
-250 163 -12 22 -21 46 -21 53 0 21 -70 45 -117 39 -63 -7 -76 -22 -69 -77 10
-71 50 -141 120 -208 l64 -62 -35 -57 c-20 -32 -43 -70 -51 -84 -9 -14 -13
-33 -9 -42 10 -26 69 -58 102 -55 27 3 35 13 74 86 42 78 47 83 70 77 67 -16
189 -17 244 -1 111 32 207 143 207 239 0 108 -53 177 -230 297 -65 44 -126 90
-135 102 -25 36 -19 66 18 88 41 25 100 25 157 -1 58 -26 96 -63 126 -122 35
-67 99 -86 180 -52 33 14 35 17 29 47 -13 64 -58 141 -117 198 l-58 57 33 59
c44 79 49 92 37 115 -11 20 -60 49 -83 49 -7 0 -23 -10 -34 -22z"/>
<path d="M3126 1084 c-5 -12 -2 -15 10 -10 8 3 18 6 20 6 3 0 2 5 -1 10 -9 15
-22 12 -29 -6z"/>
<path d="M5453 1276 c1 -63 6 -118 10 -122 4 -4 34 -10 67 -12 l59 -4 3 120 3
120 -44 6 c-24 3 -57 6 -72 6 l-29 0 3 -114z"/>
<path d="M5735 1329 c-3 -24 -5 -78 -3 -119 l3 -75 59 -8 c32 -5 65 -6 72 -3
11 4 14 32 14 121 0 114 0 115 -24 115 -13 0 -44 3 -69 6 l-45 6 -7 -43z"/>
<path d="M6524 1355 c-7 -18 -1 -212 7 -219 3 -3 35 -3 72 1 l67 6 0 113 0
114 -70 0 c-54 0 -72 -4 -76 -15z"/>
<path d="M6127 1353 c-9 -8 -9 -126 -1 -187 l7 -46 68 0 69 0 0 120 0 120 -68
0 c-38 0 -72 -3 -75 -7z"/>
<path d="M2155 8021 c-73 -19 -152 -87 -180 -155 -52 -125 -4 -273 111 -342
43 -25 59 -28 129 -29 87 0 141 20 198 73 54 51 72 98 72 192 0 119 -34 177
-137 239 -40 24 -142 36 -193 22z m105 -221 c27 -27 26 -65 -2 -84 -44 -31
-89 -10 -90 42 -2 56 53 81 92 42z"/>
<path d="M1787 7590 c-40 -12 -94 -56 -112 -91 -9 -16 -27 -69 -41 -117 -50
-176 -102 -243 -240 -309 -90 -43 -148 -103 -158 -162 -3 -22 -4 -45 -2 -53 2
-7 7 -25 10 -40 10 -45 63 -96 146 -139 139 -72 195 -139 240 -284 39 -128 51
-154 86 -184 116 -102 269 -32 314 144 20 76 73 185 114 232 24 27 69 58 134
91 97 50 114 64 141 111 39 69 33 127 -20 200 -23 33 -50 52 -117 84 -143 69
-186 126 -250 333 -27 86 -38 107 -71 137 -55 49 -113 65 -174 47z m68 -332
c49 -150 157 -286 278 -349 l65 -33 -77 -45 c-127 -74 -208 -173 -267 -325
-13 -34 -23 -51 -24 -40 0 33 -80 183 -125 237 -45 55 -142 132 -197 156 l-36
17 75 39 c97 51 179 139 233 250 21 44 41 95 45 113 4 17 8 32 10 32 2 0 11
-24 20 -52z"/>
<path d="M8889 7570 c-54 -28 -83 -69 -108 -151 -60 -194 -89 -234 -214 -297
-95 -47 -134 -87 -144 -146 -15 -93 31 -159 152 -221 97 -49 145 -104 181
-205 62 -175 96 -220 176 -234 91 -16 170 37 207 141 59 161 67 178 116 228
31 32 73 62 111 79 77 35 123 80 135 136 21 94 -25 164 -151 228 -101 51 -136
98 -185 250 -28 85 -47 125 -72 153 -54 59 -136 75 -204 39z m154 -442 c44
-66 133 -153 170 -167 36 -14 34 -26 -5 -42 -56 -23 -161 -137 -201 -218 -20
-41 -37 -81 -37 -90 0 -9 -13 14 -29 51 -47 111 -136 212 -223 257 -36 18 -35
26 4 42 60 25 154 130 198 222 22 46 40 93 41 103 0 11 10 -9 23 -43 13 -33
39 -85 59 -115z"/>
<path d="M8483 6326 c-71 -18 -129 -60 -164 -120 -77 -136 -30 -302 106 -371
130 -65 288 -12 358 120 27 52 30 174 4 221 -43 82 -110 134 -195 153 -29 6
-54 11 -55 10 -1 0 -26 -6 -54 -13z m93 -214 c39 -27 14 -92 -36 -92 -45 0
-66 52 -34 84 16 17 51 21 70 8z"/>
<path d="M9065 5736 c-50 -22 -81 -68 -104 -156 -43 -159 -67 -193 -174 -245
-46 -23 -67 -40 -84 -70 -28 -51 -30 -119 -3 -163 19 -31 102 -92 125 -92 6 0
30 -20 53 -43 34 -35 49 -63 72 -131 51 -154 90 -191 193 -190 91 1 134 46
176 185 28 89 80 155 145 184 93 41 147 129 126 205 -14 52 -48 88 -115 123
-92 50 -121 95 -170 269 -13 49 -23 64 -66 98 -43 34 -58 40 -97 40 -26 -1
-61 -7 -77 -14z m106 -381 c19 -40 53 -85 88 -118 l57 -55 -62 -58 c-37 -36
-73 -82 -89 -115 l-28 -56 -28 57 c-17 33 -54 81 -88 113 l-59 57 62 62 c40
41 70 83 86 120 14 32 26 58 27 58 1 0 16 -29 34 -65z"/>
<path d="M1365 5722 c-11 -2 -39 -15 -62 -29 -47 -27 -72 -72 -98 -172 -32
-124 -67 -175 -151 -216 -29 -14 -66 -38 -83 -54 -34 -31 -54 -94 -45 -139 8
-42 67 -108 118 -133 50 -25 102 -73 124 -114 9 -16 30 -70 47 -119 33 -99 70
-140 139 -156 96 -22 166 38 216 183 38 111 79 167 146 199 172 80 174 247 4
333 -69 35 -105 82 -134 175 -15 45 -26 86 -26 92 0 6 -10 30 -22 54 -30 62
-114 108 -173 96z m60 -412 c34 -63 109 -148 145 -163 12 -5 11 -8 -5 -18 -49
-31 -116 -106 -146 -163 l-32 -62 -29 56 c-17 34 -54 82 -94 120 -58 56 -64
64 -47 73 37 20 109 106 138 165 17 34 31 61 32 61 1 1 18 -30 38 -69z"/>
<path d="M1340 4346 c-68 -18 -114 -50 -153 -109 -105 -153 -55 -348 109 -427
151 -74 360 32 395 199 23 112 -15 212 -108 286 -79 61 -150 77 -243 51z m129
-230 c21 -25 17 -77 -9 -98 -32 -26 -85 -24 -104 4 -56 79 52 168 113 94z"/>
<path d="M9075 4289 c-91 -22 -183 -123 -206 -225 -43 -192 148 -377 338 -328
107 28 189 107 219 211 14 48 15 65 4 112 -23 103 -70 166 -157 211 -49 25
-139 34 -198 19z m120 -224 c25 -24 33 -68 17 -91 -11 -17 -48 -34 -73 -34
-74 0 -81 116 -9 143 28 10 41 7 65 -18z"/>
</g>
</svg>
