<?xml version="1.0" encoding="UTF-8"?>
<!DOCTYPE svg PUBLIC "-//W3C//DTD SVG 1.1//EN" "http://www.w3.org/Graphics/SVG/1.1/DTD/svg11.dtd">
<svg xmlns="http://www.w3.org/2000/svg" version="1.1" width="1024px" height="1024px" style="shape-rendering:geometricPrecision; text-rendering:geometricPrecision; image-rendering:optimizeQuality; fill-rule:evenodd; clip-rule:evenodd" xmlns:xlink="http://www.w3.org/1999/xlink">
<g><path style="opacity:0.864" fill="#000000" d="M 557.5,65.5 C 584.335,62.3309 603.835,72.6642 616,96.5C 625.486,123.708 618.653,145.874 595.5,163C 609.779,193.06 623.945,223.227 638,253.5C 654.911,230.677 671.578,207.677 688,184.5C 687.554,181.261 686.221,178.261 684,175.5C 675.679,151.447 682.512,133.281 704.5,121C 729.585,112.914 747.751,120.747 759,144.5C 764.441,163.509 759.441,179.175 744,191.5C 743.833,192.5 743.667,193.5 743.5,194.5C 746.513,211.579 749.846,228.579 753.5,245.5C 765.614,231.217 778.28,217.384 791.5,204C 783.711,181.035 789.711,162.702 809.5,149C 837.114,137.092 857.948,144.259 872,170.5C 876.934,185.909 874.934,200.243 866,213.5C 859.957,219.329 853.624,224.663 847,229.5C 833.459,281.787 820.126,334.121 807,386.5C 802.74,393.39 796.906,398.556 789.5,402C 850.909,478.21 867.909,563.376 840.5,657.5C 888.156,670.322 922.656,698.988 944,743.5C 966.399,805.512 954.565,860.012 908.5,907C 902.542,911.289 896.876,915.956 891.5,921C 900.217,921.629 908.05,924.463 915,929.5C 915.667,930.833 915.667,932.167 915,933.5C 913.543,935.658 911.71,937.491 909.5,939C 900.392,942.022 891.058,944.022 881.5,945C 850.524,948.799 819.524,949.133 788.5,946C 776.304,944.451 764.304,941.951 752.5,938.5C 734.503,945.833 715.836,950.666 696.5,953C 644.212,959.149 592.046,958.649 540,951.5C 536.707,954.787 532.873,957.287 528.5,959C 505.694,965.973 482.36,969.973 458.5,971C 427.168,972.966 395.835,972.966 364.5,971C 341.369,969.574 318.702,965.574 296.5,959C 291.41,957.042 286.91,954.208 283,950.5C 281.872,948.655 281.372,946.655 281.5,944.5C 246.209,949.548 210.876,949.715 175.5,945C 166.976,943.786 158.643,941.786 150.5,939C 144.333,935.199 143.999,931.033 149.5,926.5C 156.262,923.846 163.262,922.013 170.5,921C 113.215,876.067 95.0483,818.567 116,748.5C 135.841,701.664 170.341,671.498 219.5,658C 220.516,657.481 221.182,656.647 221.5,655.5C 199.532,579.773 207.699,507.439 246,438.5C 259.76,414.716 275.926,392.549 294.5,372C 285.917,368.149 279.75,361.982 276,353.5C 271.278,298.507 266.612,243.507 262,188.5C 238.624,170.318 234.29,148.318 249,122.5C 262.193,107.104 278.693,101.937 298.5,107C 320.475,116.099 330.309,132.599 328,156.5C 327.266,161.107 325.766,165.441 323.5,169.5C 335.179,186.19 347.346,202.524 360,218.5C 365.695,200.946 371.528,183.446 377.5,166C 373.982,161.146 370.815,155.98 368,150.5C 361.489,131.049 365.989,114.549 381.5,101C 396.781,91.8162 412.448,91.1495 428.5,99C 449.012,114.967 453.178,134.467 441,157.5C 438.723,160.399 436.223,163.066 433.5,165.5C 448.161,192.16 463.328,218.493 479,244.5C 497.576,216.718 515.409,188.551 532.5,160C 525.322,151.484 519.822,141.984 516,131.5C 510.717,102.97 520.883,82.137 546.5,69C 550.333,67.9662 553.999,66.7995 557.5,65.5 Z"/></g>
<g><path style="opacity:1" fill="#0a0a0a" d="M 567.5,69.5 C 570.974,69.2368 574.474,69.2368 578,69.5C 581.535,69.9199 582.035,71.0866 579.5,73C 581.433,73.7826 582.933,73.2826 584,71.5C 584.605,73.4812 585.605,73.8146 587,72.5C 589.365,73.2891 591.532,74.4558 593.5,76C 593.5,77 593.5,78 593.5,79C 595.279,78.0209 596.945,78.3542 598.5,80C 602.421,83.7334 605.754,87.2334 608.5,90.5C 609.228,92.1932 610.228,93.6932 611.5,95C 610.5,95.8333 609.5,96.6667 608.5,97.5C 609.391,98.5896 610.391,98.5896 611.5,97.5C 612.893,99.6741 612.56,101.507 610.5,103C 611.667,105.5 613.5,107.333 616,108.5C 617.902,125.659 613.236,140.659 602,153.5C 600.182,155.645 598.682,155.645 597.5,153.5C 596.289,154.274 596.289,155.107 597.5,156C 595.316,158.016 593.316,160.183 591.5,162.5C 591.673,164.838 592.673,167.171 594.5,169.5C 594.167,170.167 593.833,170.833 593.5,171.5C 594.981,172.48 596.315,173.647 597.5,175C 595.905,174.383 594.572,174.716 593.5,176C 594.793,176.49 596.127,176.657 597.5,176.5C 601.995,187.835 607.495,199.168 614,210.5C 614.557,212.615 615.391,214.615 616.5,216.5C 615.572,217.768 615.405,219.101 616,220.5C 616.984,218.205 617.817,218.539 618.5,221.5C 618.167,222.167 617.833,222.833 617.5,223.5C 618.76,224.382 619.926,225.382 621,226.5C 621.92,229.938 623.587,232.938 626,235.5C 626.725,238.377 626.225,241.043 624.5,243.5C 624.667,243.833 624.833,244.167 625,244.5C 626,243.167 627,241.833 628,240.5C 630.302,244.718 631.468,249.051 631.5,253.5C 631.938,254.506 632.604,254.506 633.5,253.5C 635.003,254.59 635.336,255.757 634.5,257C 635.646,257.645 636.646,258.478 637.5,259.5C 640.229,257.343 642.063,255.01 643,252.5C 643.333,252.833 643.667,253.167 644,253.5C 644.333,252.5 644.667,251.5 645,250.5C 646.666,251.34 646.833,250.84 645.5,249C 649.293,245.742 652.627,242.076 655.5,238C 655.167,237.667 654.833,237.333 654.5,237C 658.747,232.561 662.414,227.728 665.5,222.5C 667.132,223.297 668.632,224.297 670,225.5C 670.5,225.167 671,224.833 671.5,224.5C 670.273,223.41 669.44,222.076 669,220.5C 667.604,222.808 666.937,222.475 667,219.5C 669.032,217.232 670.365,217.898 671,221.5C 671.536,219.433 671.036,217.599 669.5,216C 672.943,215.596 674.276,213.929 673.5,211C 675,208.833 676.5,206.667 678,204.5C 679.297,205.784 680.464,205.617 681.5,204C 680.044,203.577 679.544,202.744 680,201.5C 681.353,200.315 682.52,198.981 683.5,197.5C 684.425,196.359 685.259,196.359 686,197.5C 686.456,196.256 685.956,195.423 684.5,195C 685.416,194.626 686.25,194.126 687,193.5C 688.545,189.568 690.712,186.068 693.5,183C 691.975,178.072 689.308,173.572 685.5,169.5C 686.199,166.799 685.532,164.299 683.5,162C 684.297,158.255 684.797,154.421 685,150.5C 685.556,152.595 686.056,152.762 686.5,151C 685.749,144.902 687.916,139.402 693,134.5C 694.666,135.34 694.833,134.84 693.5,133C 695.333,131.5 697.167,130 699,128.5C 699.669,131.028 700.502,131.028 701.5,128.5C 700.371,126.471 700.871,126.137 703,127.5C 705.058,125.932 707.225,124.598 709.5,123.5C 711.983,125.098 713.983,124.598 715.5,122C 720.5,121.333 725.5,121.333 730.5,122C 732.224,122.448 732.891,123.282 732.5,124.5C 734.224,123.339 735.89,123.505 737.5,125C 736.833,125.333 736.167,125.667 735.5,126C 739.998,126.694 743.998,129.027 747.5,133C 747.5,134.333 747.5,135.667 747.5,137C 749.974,137.113 751.974,138.113 753.5,140C 752.366,141.016 752.699,141.683 754.5,142C 754.043,142.414 753.709,142.914 753.5,143.5C 755.881,147.277 757.215,151.444 757.5,156C 757.368,161.507 756.368,167.007 754.5,172.5C 753.624,173.251 752.624,173.751 751.5,174C 751.833,174.333 752.167,174.667 752.5,175C 750.134,180.058 746.801,184.391 742.5,188C 741.551,188.617 740.718,188.451 740,187.5C 739.383,188.449 739.549,189.282 740.5,190C 739.833,190.333 739.167,190.667 738.5,191C 739.776,200.476 741.776,209.809 744.5,219C 744.043,219.414 743.709,219.914 743.5,220.5C 746.128,230.677 748.461,240.677 750.5,250.5C 748.641,252.192 746.641,253.692 744.5,255C 750.153,254.185 754.487,251.185 757.5,246C 760.629,243.073 763.962,240.406 767.5,238C 766.549,237.282 766.383,236.449 767,235.5C 774.83,226.67 782.997,218.17 791.5,210C 791.167,209.667 790.833,209.333 790.5,209C 791.949,207.883 793.616,207.216 795.5,207C 794.646,205.119 794.979,203.286 796.5,201.5C 790.785,191.063 790.618,180.063 796,168.5C 796.333,169.167 796.667,169.833 797,170.5C 797.792,166.921 799.125,163.588 801,160.5C 802.167,159.333 803.333,158.167 804.5,157C 806.272,157.675 808.105,157.509 810,156.5C 812.117,157.158 813.95,157.991 815.5,159C 814.743,157.488 813.743,156.154 812.5,155C 813.38,153.644 813.714,152.144 813.5,150.5C 819.436,149.045 825.436,147.712 831.5,146.5C 837.466,148.046 843.466,149.379 849.5,150.5C 849.312,152.103 849.812,153.437 851,154.5C 851.333,153.833 851.667,153.167 852,152.5C 854.167,154 856.333,155.5 858.5,157C 858.167,157.333 857.833,157.667 857.5,158C 870.596,170.537 874.096,185.037 868,201.5C 867.346,200.304 866.846,200.304 866.5,201.5C 866.623,203.378 866.623,205.211 866.5,207C 863.049,211.791 858.715,215.458 853.5,218C 854.167,218.333 854.833,218.667 855.5,219C 853.043,220.562 850.376,221.562 847.5,222C 848.654,222.914 848.487,223.747 847,224.5C 845.442,223.655 844.442,224.321 844,226.5C 840.042,241.538 836.042,256.871 832,272.5C 831.235,275.196 830.068,277.696 828.5,280C 829.022,280.561 829.355,281.228 829.5,282C 828.371,287.335 826.871,292.502 825,297.5C 824.444,295.405 823.944,295.238 823.5,297C 823.96,298.301 824.294,299.634 824.5,301C 823.538,305.554 822.371,310.054 821,314.5C 820.444,312.405 819.944,312.238 819.5,314C 819.911,315.144 820.244,316.311 820.5,317.5C 818.235,322.569 816.901,327.569 816.5,332.5C 815.167,332.5 813.833,332.5 812.5,332.5C 812.34,334.199 812.506,335.866 813,337.5C 813.743,335.355 814.576,335.189 815.5,337C 814.885,339.515 813.885,341.848 812.5,344C 813.022,344.561 813.355,345.228 813.5,346C 811.948,349.707 810.781,353.54 810,357.5C 809.751,356.376 809.251,355.376 808.5,354.5C 809.751,361.775 808.418,368.942 804.5,376C 805.517,377.049 805.684,378.216 805,379.5C 804.581,378.328 803.915,377.328 803,376.5C 802.952,378.544 803.452,380.544 804.5,382.5C 803.194,387.302 800.527,391.135 796.5,394C 792.54,395.643 788.54,397.31 784.5,399C 784.694,400.43 784.694,401.93 784.5,403.5C 786.673,406.172 789.173,408.506 792,410.5C 797.612,419.019 803.278,427.019 809,434.5C 810.787,438.577 812.954,442.41 815.5,446C 814.5,446.833 813.5,447.667 812.5,448.5C 814.007,449.739 815.174,449.405 816,447.5C 827.675,469.16 836.009,490.827 841,512.5C 841.977,515.102 843.144,517.602 844.5,520C 844.659,522.563 844.325,525.23 843.5,528C 846.106,532.401 847.606,537.234 848,542.5C 849.935,557.452 850.602,572.452 850,587.5C 849.806,591.802 848.973,595.968 847.5,600C 847.667,600.833 847.833,601.667 848,602.5C 848.654,601.304 849.154,601.304 849.5,602.5C 846.762,617.593 843.596,632.593 840,647.5C 839.333,648.833 838.667,648.833 838,647.5C 838.707,649.843 838.374,652.176 837,654.5C 836.552,656.224 835.718,656.891 834.5,656.5C 836.832,658.664 837.999,660.997 838,663.5C 840.084,660.967 842.084,660.967 844,663.5C 844.333,663.167 844.667,662.833 845,662.5C 846.399,663.227 847.899,663.727 849.5,664C 846.972,664.669 846.972,665.502 849.5,666.5C 850.192,665.975 850.692,665.308 851,664.5C 856.181,666.168 861.348,668.002 866.5,670C 865.833,670.333 865.167,670.667 864.5,671C 867.167,671.667 869.833,672.333 872.5,673C 871.66,674.666 872.16,674.833 874,673.5C 878.019,676.1 882.186,678.6 886.5,681C 890.439,684.87 894.606,688.37 899,691.5C 899.333,691.167 899.667,690.833 900,690.5C 900.684,691.784 900.517,692.951 899.5,694C 900.833,694 902.167,694 903.5,694C 905.333,695.833 907.167,697.667 909,699.5C 909.651,701.235 909.485,702.902 908.5,704.5C 909.651,705.731 910.817,705.731 912,704.5C 912.903,705.701 914.069,706.535 915.5,707C 923.574,716.329 930.241,725.496 935.5,734.5C 934.284,735.096 932.951,735.263 931.5,735C 932.833,735.667 932.833,736.333 931.5,737C 935.567,737.138 938.234,739.138 939.5,743C 937.745,743.72 936.911,744.887 937,746.5C 938.016,745.366 938.683,745.699 939,747.5C 939.333,746.5 939.667,745.5 940,744.5C 943.477,747.578 943.31,750.411 939.5,753C 941.134,753.494 942.801,753.66 944.5,753.5C 944.67,754.822 944.337,755.989 943.5,757C 946.951,759.92 947.284,763.086 944.5,766.5C 945.557,766.906 946.891,766.906 948.5,766.5C 951.221,782.066 952.054,798.066 951,814.5C 947.87,838.249 939.87,859.916 927,879.5C 926.25,880.126 925.416,880.626 924.5,881C 924.833,881.333 925.167,881.667 925.5,882C 920.745,887.012 916.745,892.012 913.5,897C 912.552,897.483 911.552,897.649 910.5,897.5C 909.736,900.787 907.903,903.454 905,905.5C 904.586,905.043 904.086,904.709 903.5,904.5C 901.709,906.021 900.376,907.854 899.5,910C 897.202,911.086 895.202,912.586 893.5,914.5C 892.914,914.291 892.414,913.957 892,913.5C 891.252,915.332 890.252,916.999 889,918.5C 888.667,918.167 888.333,917.833 888,917.5C 885.879,919.412 883.713,921.245 881.5,923C 883.285,924.163 885.285,924.83 887.5,925C 888.047,925.925 888.713,926.758 889.5,927.5C 892.124,928.027 894.624,927.36 897,925.5C 898.762,925.944 898.595,926.444 896.5,927C 898.035,927.496 899.535,927.33 901,926.5C 902.653,926.82 903.653,927.82 904,929.5C 904.333,928.833 904.667,928.167 905,927.5C 905.582,930.668 906.582,931.001 908,928.5C 909.41,929.787 910.91,930.954 912.5,932C 910.122,933.614 907.789,935.281 905.5,937C 903.217,937.291 901.05,936.791 899,935.5C 897.107,936.196 895.274,937.03 893.5,938C 894.167,938.333 894.833,938.667 895.5,939C 888.995,940.689 882.495,941.189 876,940.5C 867.121,942.271 858.121,943.605 849,944.5C 838.115,942.333 826.949,941.333 815.5,941.5C 815.5,942.5 815.5,943.5 815.5,944.5C 812.833,944.167 810.167,943.833 807.5,943.5C 807.5,942.5 807.5,941.5 807.5,940.5C 806.5,940.5 805.5,940.5 804.5,940.5C 804.5,941.5 804.5,942.5 804.5,943.5C 802.61,943.703 801.11,943.037 800,941.5C 799.692,942.308 799.192,942.975 798.5,943.5C 795.838,941.456 793.005,941.123 790,942.5C 788.128,941.932 786.295,941.265 784.5,940.5C 781.198,940.849 778.031,940.849 775,940.5C 772.657,939.873 770.49,938.873 768.5,937.5C 767.833,937.833 767.167,938.167 766.5,938.5C 761.692,937.09 756.859,935.756 752,934.5C 744.732,936.946 737.565,939.612 730.5,942.5C 729.914,942.291 729.414,941.957 729,941.5C 727.12,944.018 724.787,944.685 722,943.5C 719.081,944.187 716.248,945.187 713.5,946.5C 712.808,945.975 712.308,945.308 712,944.5C 710.56,946.046 708.727,946.879 706.5,947C 707.696,947.654 707.696,948.154 706.5,948.5C 699.699,948.7 692.865,948.7 686,948.5C 677.399,952.37 668.566,953.37 659.5,951.5C 655.568,951.846 651.735,952.513 648,953.5C 633.542,953.492 619.042,953.492 604.5,953.5C 601.571,952.537 598.571,951.87 595.5,951.5C 589.851,952.46 584.185,952.627 578.5,952C 580.256,951.798 581.922,951.298 583.5,950.5C 582.167,950.167 580.833,949.833 579.5,949.5C 576.529,950.294 573.529,950.961 570.5,951.5C 559.544,950.776 548.71,949.443 538,947.5C 535.491,948.96 532.991,951.126 530.5,954C 528.5,954.333 526.5,954.667 524.5,955C 524.833,955.333 525.167,955.667 525.5,956C 524.5,956.5 523.5,957 522.5,957.5C 522.167,956.833 521.833,956.167 521.5,955.5C 518.563,957.813 515.23,959.146 511.5,959.5C 511.5,958.5 511.5,957.5 511.5,956.5C 510.5,956.5 509.5,956.5 508.5,956.5C 508.36,958.124 509.027,959.29 510.5,960C 508.899,960.273 507.399,960.773 506,961.5C 505.71,959.956 505.044,958.623 504,957.5C 504.617,959.095 504.284,960.428 503,961.5C 501.274,960.424 499.441,960.257 497.5,961C 495.44,962.696 493.107,963.863 490.5,964.5C 486.5,964.5 482.5,964.5 478.5,964.5C 476.291,965.106 474.124,965.773 472,966.5C 471.667,965.833 471.333,965.167 471,964.5C 461.519,965.609 452.019,966.942 442.5,968.5C 424.524,967.821 406.524,967.821 388.5,968.5C 375.165,967.689 361.832,966.855 348.5,966C 342.669,965.096 337.003,963.596 331.5,961.5C 329.199,962.396 326.866,962.562 324.5,962C 325.833,961.667 327.167,961.333 328.5,961C 320.257,961.653 312.257,960.153 304.5,956.5C 303.914,956.709 303.414,957.043 303,957.5C 299.172,956.342 295.839,954.342 293,951.5C 291.765,952.615 290.598,952.615 289.5,951.5C 286.707,948.249 284.374,944.749 282.5,941C 270.062,942.432 257.396,943.599 244.5,944.5C 223.18,944.535 201.847,943.701 180.5,942C 176.954,940.826 173.287,940.16 169.5,940C 171.608,939.64 173.608,938.973 175.5,938C 172.309,937.969 169.143,938.469 166,939.5C 161.261,938.426 157.261,936.093 154,932.5C 152.902,933.384 152.402,934.384 152.5,935.5C 151.315,934.147 149.981,932.98 148.5,932C 149.536,930.383 150.703,930.216 152,931.5C 153.608,929.9 155.441,928.567 157.5,927.5C 158.287,928.242 158.953,929.075 159.5,930C 164.823,930.499 170.156,930.666 175.5,930.5C 175.5,929.5 175.5,928.5 175.5,927.5C 176.552,927.649 177.552,927.483 178.5,927C 177.09,926.632 176.09,925.799 175.5,924.5C 178.501,922.016 178.667,919.683 176,917.5C 175.667,917.833 175.333,918.167 175,918.5C 172.913,917.206 170.746,916.039 168.5,915C 165.464,911.304 161.797,908.304 157.5,906C 155.954,903.743 154.288,901.576 152.5,899.5C 153.025,898.808 153.692,898.308 154.5,898C 152.793,897.805 151.126,897.805 149.5,898C 149.833,897.667 150.167,897.333 150.5,897C 149.751,895.266 149.251,893.433 149,891.5C 148.346,890.304 147.846,890.304 147.5,891.5C 148.326,892.451 148.492,893.451 148,894.5C 144.678,891.101 141.512,887.601 138.5,884C 138.5,882.667 138.5,881.333 138.5,880C 137.551,879.383 136.718,879.549 136,880.5C 133.043,874.823 129.543,868.989 125.5,863C 125.833,862.667 126.167,862.333 126.5,862C 123.79,860.54 123.124,858.54 124.5,856C 120.262,851.425 118.096,846.591 118,841.5C 116.334,842.34 116.167,841.84 117.5,840C 116.271,835.935 114.938,831.935 113.5,828C 115.123,826.124 114.79,824.79 112.5,824C 113.022,823.439 113.355,822.772 113.5,822C 112.135,817.573 111.135,813.073 110.5,808.5C 112.682,807.177 113.349,805.51 112.5,803.5C 111.05,806.141 110.383,805.808 110.5,802.5C 110.621,801.106 110.954,799.772 111.5,798.5C 124.632,796.711 124.632,795.377 111.5,794.5C 113.748,793.676 113.914,792.676 112,791.5C 111.427,785.461 111.761,779.461 113,773.5C 116.948,749.771 127.115,729.271 143.5,712C 143.167,711.667 142.833,711.333 142.5,711C 143.701,710.097 144.535,708.931 145,707.5C 146,706.167 147,706.167 148,707.5C 147.383,705.905 147.716,704.572 149,703.5C 149.414,703.957 149.914,704.291 150.5,704.5C 154.825,696.01 161.491,690.176 170.5,687C 170.167,686.667 169.833,686.333 169.5,686C 175.411,681.755 181.578,677.922 188,674.5C 189.261,674.759 190.261,675.426 191,676.5C 191.617,675.551 191.451,674.718 190.5,674C 192.579,671.623 194.912,670.457 197.5,670.5C 200.828,669.343 203.328,668.01 205,666.5C 206.107,666.585 207.107,666.919 208,667.5C 209.598,664.529 211.931,663.529 215,664.5C 218.503,662.476 222.17,660.809 226,659.5C 225.402,653.294 223.902,647.294 221.5,641.5C 221.608,640.558 221.941,639.725 222.5,639C 220.324,634.797 219.158,630.297 219,625.5C 217.334,626.34 217.167,625.84 218.5,624C 216.278,615.641 214.611,607.141 213.5,598.5C 213.597,584.023 213.764,569.356 214,554.5C 214.427,550.324 214.927,546.158 215.5,542C 215.682,539.657 216.682,537.824 218.5,536.5C 217.585,535.672 216.919,534.672 216.5,533.5C 217.803,526.898 219.47,520.398 221.5,514C 220.448,512.284 221.114,511.284 223.5,511C 222.833,510.667 222.167,510.333 221.5,510C 222.809,504.274 224.809,498.774 227.5,493.5C 227.291,492.914 226.957,492.414 226.5,492C 228.088,487.831 229.754,483.664 231.5,479.5C 234.295,478.752 234.962,477.252 233.5,475C 236.59,467.053 240.09,458.886 244,450.5C 244.333,451.167 244.667,451.833 245,452.5C 246.202,450.447 246.536,448.447 246,446.5C 246.333,446.833 246.667,447.167 247,447.5C 247.268,444.238 248.768,441.738 251.5,440C 250.483,438.951 250.316,437.784 251,436.5C 253.384,434.689 255.051,432.355 256,429.5C 258.391,430.602 258.891,429.936 257.5,427.5C 261.823,419.416 266.49,412.083 271.5,405.5C 272.274,404.289 273.107,404.289 274,405.5C 273.021,403.721 273.354,402.055 275,400.5C 278.764,397.408 281.764,393.741 284,389.5C 284.39,393.659 285.556,394.159 287.5,391C 285.993,390.163 285.493,388.996 286,387.5C 287.251,384.619 289.417,382.786 292.5,382C 292.043,381.586 291.709,381.086 291.5,380.5C 294.414,378.092 296.747,375.258 298.5,372C 298,370.5 297.5,369 297,367.5C 296.282,368.451 295.449,368.617 294.5,368C 293.672,367.085 292.672,366.419 291.5,366C 292.451,365.282 292.617,364.449 292,363.5C 288.738,364.024 285.905,362.857 283.5,360C 284.554,358.612 284.72,357.112 284,355.5C 283.586,355.957 283.086,356.291 282.5,356.5C 281.904,355.284 281.737,353.951 282,352.5C 281.586,352.957 281.086,353.291 280.5,353.5C 279.413,347.544 278.746,341.544 278.5,335.5C 279.5,335.5 280.5,335.5 281.5,335.5C 281.828,330.125 281.495,324.792 280.5,319.5C 279.713,320.242 279.047,321.075 278.5,322C 279.629,326.079 279.796,330.245 279,334.5C 277.5,328.518 277.334,322.518 278.5,316.5C 277.313,313.012 276.313,309.512 275.5,306C 275.583,302.638 275.75,299.138 276,295.5C 276.649,298.937 277.149,299.104 277.5,296C 276.372,293.347 275.372,290.681 274.5,288C 275.167,287.667 275.833,287.333 276.5,287C 273.685,284.471 273.351,281.804 275.5,279C 272.777,273.886 272.111,268.553 273.5,263C 272.874,262.25 272.374,261.416 272,260.5C 270.664,246.475 269.998,232.475 270,218.5C 269.346,219.696 268.846,219.696 268.5,218.5C 270.124,217.131 270.624,215.464 270,213.5C 269.667,213.833 269.333,214.167 269,214.5C 267.291,208.874 267.125,203.207 268.5,197.5C 265.851,193.763 265.851,190.096 268.5,186.5C 267.645,185.707 266.811,186.04 266,187.5C 265.517,186.552 265.351,185.552 265.5,184.5C 259.298,182.352 254.298,178.018 250.5,171.5C 251.891,169.064 251.391,168.398 249,169.5C 246.866,167.422 247.032,165.588 249.5,164C 246.125,164.305 245.125,162.639 246.5,159C 245.833,157 245.167,155 244.5,153C 246.512,151.848 246.678,150.682 245,149.5C 244.949,141.647 246.949,134.314 251,127.5C 251.333,128.167 251.667,128.833 252,129.5C 252.983,127.552 254.15,125.718 255.5,124C 254.833,123.667 254.167,123.333 253.5,123C 254.357,122.311 255.023,121.478 255.5,120.5C 259.739,117.759 264.072,114.759 268.5,111.5C 268.833,111.667 269.167,111.833 269.5,112C 265.676,115.207 266.343,116.873 271.5,117C 267.728,115.611 267.728,114.611 271.5,114C 270.542,112.853 270.875,111.853 272.5,111C 274.615,110.443 276.615,109.609 278.5,108.5C 279.696,108.846 279.696,109.346 278.5,110C 280.167,110.667 281.833,110.667 283.5,110C 282.5,109.667 281.5,109.333 280.5,109C 293.523,107.669 304.023,111.502 312,120.5C 313.364,119.742 314.531,120.242 315.5,122C 314.167,123.84 314.334,124.34 316,123.5C 319.5,125.667 319.333,127.5 315.5,129C 317.134,129.494 318.801,129.66 320.5,129.5C 322.538,135.293 324.204,141.627 325.5,148.5C 325.023,149.478 324.357,150.311 323.5,151C 323.241,153.942 323.575,156.608 324.5,159C 322.709,161.56 321.543,164.393 321,167.5C 319.578,167.594 318.078,167.928 316.5,168.5C 317.325,169.386 318.325,169.719 319.5,169.5C 319.472,171.582 320.139,173.416 321.5,175C 321.167,175.333 320.833,175.667 320.5,176C 321.448,176.483 322.448,176.649 323.5,176.5C 323.343,177.873 323.51,179.207 324,180.5C 324.333,179.833 324.667,179.167 325,178.5C 328.72,184.235 332.72,190.235 337,196.5C 337.333,196.167 337.667,195.833 338,195.5C 341.358,200.955 345.192,206.122 349.5,211C 347.071,211.451 346.904,212.285 349,213.5C 349.333,213.167 349.667,212.833 350,212.5C 352.304,215.141 354.638,217.808 357,220.5C 356.981,222.107 356.815,223.774 356.5,225.5C 358.924,225.808 361.257,225.474 363.5,224.5C 362.282,223.197 362.615,222.197 364.5,221.5C 364.291,220.914 363.957,220.414 363.5,220C 366.883,209.509 370.383,199.343 374,189.5C 374.395,191.179 374.228,192.845 373.5,194.5C 373.667,195.167 373.833,195.833 374,196.5C 374.654,197.696 375.154,197.696 375.5,196.5C 375.591,193.391 375.258,190.225 374.5,187C 378.292,179.23 380.958,171.396 382.5,163.5C 382.263,160.937 381.763,160.937 381,163.5C 380.5,162.333 379.667,161.5 378.5,161C 380.767,159.919 380.934,158.419 379,156.5C 377.676,155.12 376.343,154.786 375,155.5C 373.397,150.073 371.397,144.407 369,138.5C 367.883,127.184 371.216,117.184 379,108.5C 382.64,104.777 386.807,102.277 391.5,101C 390.328,101.419 389.328,102.085 388.5,103C 390.198,102.503 391.865,102.67 393.5,103.5C 396.153,102.715 396.82,101.215 395.5,99C 398.844,99.0321 402.178,98.1988 405.5,96.5C 409.117,96.5152 412.784,97.3485 416.5,99C 415.5,99.3333 414.5,99.6667 413.5,100C 415.92,100.687 418.087,100.187 420,98.5C 423.005,100.512 426.172,102.346 429.5,104C 447.052,121.204 448.885,139.704 435,159.5C 432.766,161.7 430.266,163.533 427.5,165C 429.879,168.256 431.879,171.756 433.5,175.5C 432.005,175.478 430.338,175.811 428.5,176.5C 430.961,178.381 433.128,178.381 435,176.5C 435.465,177.931 436.299,179.097 437.5,180C 436.399,182.292 437.232,183.792 440,184.5C 441.294,185.854 441.46,187.188 440.5,188.5C 444.461,192.951 447.795,197.784 450.5,203C 449.044,203.423 448.544,204.256 449,205.5C 450.243,204.664 451.41,204.997 452.5,206.5C 453.344,209.678 455.011,212.345 457.5,214.5C 456.36,216.078 455.86,217.744 456,219.5C 456.333,219.167 456.667,218.833 457,218.5C 459.221,220.714 461.388,223.047 463.5,225.5C 465.464,229.739 467.797,233.739 470.5,237.5C 470.291,238.086 469.957,238.586 469.5,239C 472.514,240.672 474.514,242.672 475.5,245C 472.614,248.361 473.114,251.195 477,253.5C 477.333,251.953 476.833,250.62 475.5,249.5C 475.667,249.167 475.833,248.833 476,248.5C 478.515,250.107 479.849,252.44 480,255.5C 480.054,252.139 481.054,249.139 483,246.5C 484.812,249.691 484.978,253.024 483.5,256.5C 484.833,257.167 486.167,257.833 487.5,258.5C 485.833,259.167 484.167,259.833 482.5,260.5C 484.542,261.503 484.875,262.837 483.5,264.5C 487.434,266.061 488.101,265.395 485.5,262.5C 486.883,259.924 487.717,260.258 488,263.5C 488.816,254.921 488.649,246.421 487.5,238C 488.67,235.016 490.837,232.182 494,229.5C 496.069,225.03 498.402,220.697 501,216.5C 501.333,216.833 501.667,217.167 502,217.5C 502.903,216.299 504.069,215.465 505.5,215C 502.721,214.851 502.221,214.017 504,212.5C 505.333,213.833 506.667,213.833 508,212.5C 508.687,210.432 508.52,208.432 507.5,206.5C 509.329,203.841 511.329,201.341 513.5,199C 512.66,197.334 513.16,197.167 515,198.5C 516.044,196.285 516.71,193.952 517,191.5C 517.639,194.228 518.806,194.728 520.5,193C 519.692,192.692 519.025,192.192 518.5,191.5C 519.366,188.469 520.866,185.803 523,183.5C 523.249,184.624 523.749,185.624 524.5,186.5C 525.318,184.892 525.985,183.225 526.5,181.5C 525.211,178.849 525.711,176.516 528,174.5C 529.049,175.517 530.216,175.684 531.5,175C 529.109,174.309 529.109,173.309 531.5,172C 531.043,171.586 530.709,171.086 530.5,170.5C 533.826,167.672 536.159,164.172 537.5,160C 533.801,155.965 530.467,151.632 527.5,147C 527.833,146.667 528.167,146.333 528.5,146C 527.809,144.933 527.309,143.766 527,142.5C 526.333,143.833 525.667,143.833 525,142.5C 523.505,140.89 523.339,139.224 524.5,137.5C 523.726,136.289 522.893,136.289 522,137.5C 518.611,127.028 517.944,116.361 520,105.5C 520.5,105 521,104.5 521.5,104C 520.574,100.171 521.907,97.1713 525.5,95C 525.043,94.586 524.709,94.086 524.5,93.5C 525.82,91.5089 527.154,89.5089 528.5,87.5C 532.776,84.268 536.609,80.6014 540,76.5C 540.333,76.8333 540.667,77.1667 541,77.5C 541.308,76.6919 541.808,76.0253 542.5,75.5C 547.167,73.5 551.833,71.5 556.5,69.5C 561.476,69.7654 565.143,69.7654 567.5,69.5 Z"/></g>
<g><path style="opacity:1" fill="#fdfdfd" d="M 589.5,112.5 C 588.009,115.955 585.676,118.788 582.5,121C 569.381,126.748 557.214,125.248 546,116.5C 545.506,114.866 545.34,113.199 545.5,111.5C 550.692,99.0679 560.026,94.2346 573.5,97C 581.353,99.6878 586.686,104.855 589.5,112.5 Z"/></g>
<g><path style="opacity:1" fill="#fcfcfc" d="M 422.5,127.5 C 420.976,136.337 415.643,140.337 406.5,139.5C 401.181,140.006 396.514,138.506 392.5,135C 390.887,132.772 390.22,130.272 390.5,127.5C 397.308,116.871 406.308,114.705 417.5,121C 419.765,122.758 421.432,124.925 422.5,127.5 Z"/></g>
<g><path style="opacity:1" fill="#c5c5c5" d="M 545.5,111.5 C 545.34,113.199 545.506,114.866 546,116.5C 557.214,125.248 569.381,126.748 582.5,121C 585.676,118.788 588.009,115.955 589.5,112.5C 593.07,124.287 589.736,133.787 579.5,141C 562.36,147.675 550.526,142.509 544,125.5C 543.127,120.556 543.627,115.89 545.5,111.5 Z"/></g>
<g><path style="opacity:1" fill="#fafafa" d="M 302.5,144.5 C 299.413,152.718 293.413,156.385 284.5,155.5C 274.981,156.599 269.315,152.599 267.5,143.5C 273.931,131.525 283.265,128.692 295.5,135C 298.848,137.501 301.182,140.668 302.5,144.5 Z"/></g>
<g><path style="opacity:1" fill="#c0c0c0" d="M 390.5,127.5 C 390.22,130.272 390.887,132.772 392.5,135C 396.514,138.506 401.181,140.006 406.5,139.5C 415.643,140.337 420.976,136.337 422.5,127.5C 428.031,138.987 425.031,147.821 413.5,154C 398.395,156.921 390.062,150.588 388.5,135C 388.408,132.179 389.074,129.679 390.5,127.5 Z"/></g>
<g><path style="opacity:1" fill="#fcfcfc" d="M 735.5,150.5 C 736.421,156.822 733.755,160.656 727.5,162C 720.243,163.509 713.577,162.175 707.5,158C 705.393,156.736 704.393,154.903 704.5,152.5C 708.449,143.192 715.449,139.692 725.5,142C 730.252,143.259 733.586,146.092 735.5,150.5 Z"/></g>
<g><path style="opacity:1" fill="#c4c4c4" d="M 267.5,143.5 C 269.315,152.599 274.981,156.599 284.5,155.5C 293.413,156.385 299.413,152.718 302.5,144.5C 305.546,164.84 296.88,173.007 276.5,169C 267.639,164.104 264.139,156.604 266,146.5C 266.232,145.263 266.732,144.263 267.5,143.5 Z"/></g>
<g><path style="opacity:1" fill="#c4c4c4" d="M 735.5,150.5 C 740.066,159.704 738.4,167.871 730.5,175C 714.31,181.073 704.976,175.573 702.5,158.5C 702.361,156.117 703.028,154.117 704.5,152.5C 704.393,154.903 705.393,156.736 707.5,158C 713.577,162.175 720.243,163.509 727.5,162C 733.755,160.656 736.421,156.822 735.5,150.5 Z"/></g>
<g><path style="opacity:1" fill="#fbfbfb" d="M 847.5,180.5 C 847.93,183.862 846.93,186.695 844.5,189C 831.675,195.329 821.675,192.496 814.5,180.5C 820.709,168.912 829.709,166.412 841.5,173C 844.098,175.035 846.098,177.535 847.5,180.5 Z"/></g>
<g><path style="opacity:1" fill="#fcfcfc" d="M 564.5,179.5 C 562.194,210.533 559.527,241.533 556.5,272.5C 554.901,272.232 553.568,272.566 552.5,273.5C 537.417,278.111 531.917,288.111 536,303.5C 539.223,310.026 544.389,314.026 551.5,315.5C 552.828,319.803 552.828,324.136 551.5,328.5C 548.914,329.48 546.247,329.813 543.5,329.5C 459.535,323.563 379.202,303.396 302.5,269C 299.316,243.251 297.149,217.417 296,191.5C 313,213.5 330,235.5 347,257.5C 357,269.682 368,270.682 380,260.5C 388.47,236.091 397.136,211.757 406,187.5C 424.667,218.833 443.333,250.167 462,281.5C 474.261,293.765 485.928,293.099 497,279.5C 518.683,245.454 540.85,211.787 563.5,178.5C 564.107,178.624 564.44,178.957 564.5,179.5 Z"/></g>
<g><path style="opacity:1" fill="#d5d5d5" d="M 564.5,179.5 C 582.738,214.979 600.238,250.979 617,287.5C 623.97,300.022 633.804,302.855 646.5,296C 649,293.5 651.5,291 654,288.5C 672.782,261.925 692.282,235.925 712.5,210.5C 717.983,234.749 723.15,259.082 728,283.5C 732.729,292.06 739.896,295.394 749.5,293.5C 748.597,299.777 746.764,305.777 744,311.5C 740.106,313.085 739.939,314.085 743.5,314.5C 742.833,315.833 742.167,317.167 741.5,318.5C 675.934,331.89 609.934,335.557 543.5,329.5C 546.247,329.813 548.914,329.48 551.5,328.5C 552.828,324.136 552.828,319.803 551.5,315.5C 572.207,315.756 580.374,305.756 576,285.5C 570.853,276.282 563.02,272.282 552.5,273.5C 553.568,272.566 554.901,272.232 556.5,272.5C 559.527,241.533 562.194,210.533 564.5,179.5 Z"/></g>
<g><path style="opacity:1" fill="#c6c6c6" d="M 814.5,180.5 C 821.675,192.496 831.675,195.329 844.5,189C 846.93,186.695 847.93,183.862 847.5,180.5C 852.676,196.294 847.009,205.294 830.5,207.5C 818.858,206.354 812.858,199.854 812.5,188C 812.408,185.179 813.074,182.679 814.5,180.5 Z"/></g>
<g><path style="opacity:0.961" fill="#000000" d="M 214.5,220.5 C 240.059,219.223 251.225,231.223 248,256.5C 240.872,271.664 229.038,277.498 212.5,274C 195.563,264.857 190.73,251.357 198,233.5C 202.225,227.43 207.725,223.096 214.5,220.5 Z"/></g>
<g><path style="opacity:1" fill="#f7f7f7" d="M 810.5,241.5 C 797.227,256.281 784.061,271.281 771,286.5C 762.328,296.338 753.161,305.672 743.5,314.5C 739.939,314.085 740.106,313.085 744,311.5C 746.764,305.777 748.597,299.777 749.5,293.5C 752.436,291.692 755.436,289.859 758.5,288C 776.682,269.318 794.682,250.485 812.5,231.5C 812.833,232 813.167,232.5 813.5,233C 812.197,235.744 811.197,238.577 810.5,241.5 Z"/></g>
<g><path style="opacity:1" fill="#f0f0f0" d="M 219.5,241.5 C 225.765,241.363 228.265,244.363 227,250.5C 222.845,254.704 219.178,254.371 216,249.5C 215.333,248.167 215.333,246.833 216,245.5C 217.102,244.051 218.269,242.718 219.5,241.5 Z"/></g>
<g><path style="opacity:1" fill="#0d0d0d" d="M 409.5,259.5 C 425.285,258.452 432.452,265.785 431,281.5C 423.258,294.951 413.258,296.951 401,287.5C 394.35,275.162 397.184,265.829 409.5,259.5 Z"/></g>
<g><path style="opacity:0.972" fill="#010101" d="M 178.5,263.5 C 186.38,262.181 192.88,264.514 198,270.5C 202.089,279.165 205.422,288.165 208,297.5C 210.354,302.858 213.854,307.358 218.5,311C 224.991,314.078 231.325,317.412 237.5,321C 246.366,330.388 246.7,340.055 238.5,350C 233.841,353.226 228.841,355.893 223.5,358C 211.176,366.122 204.009,377.622 202,392.5C 197.037,405.398 187.871,409.898 174.5,406C 172.241,404.285 170.074,402.452 168,400.5C 164.638,389.41 160.305,378.743 155,368.5C 148.376,360.922 140.21,355.422 130.5,352C 121.298,343.427 120.131,333.927 127,323.5C 129.074,321.548 131.241,319.715 133.5,318C 146.179,313.988 155.012,305.821 160,293.5C 161.998,286.845 163.998,280.178 166,273.5C 169.191,268.837 173.358,265.503 178.5,263.5 Z"/></g>
<g><path style="opacity:0.971" fill="#010101" d="M 893.5,263.5 C 900.381,263.179 906.214,265.846 911,271.5C 914.328,277.817 916.661,284.484 918,291.5C 922.66,303.493 931.16,311.327 943.5,315C 952.777,324.636 952.777,334.303 943.5,344C 935.038,346.976 927.871,351.81 922,358.5C 917.93,368.305 913.596,377.972 909,387.5C 897.946,395.232 888.279,393.898 880,383.5C 877.648,374.779 874.315,366.446 870,358.5C 867.973,356.228 865.806,354.061 863.5,352C 856.1,349.218 849.6,345.051 844,339.5C 838.961,331.031 839.795,323.197 846.5,316C 852.147,313.034 857.814,310.034 863.5,307C 865.667,304.833 867.833,302.667 870,300.5C 873.953,291.741 877.287,282.741 880,273.5C 883.553,268.766 888.053,265.432 893.5,263.5 Z"/></g>
<g><path style="opacity:1" fill="#a3a3a3" d="M 810.5,241.5 C 804.323,262.729 798.656,284.063 793.5,305.5C 776.471,310.823 759.137,315.156 741.5,318.5C 742.167,317.167 742.833,315.833 743.5,314.5C 753.161,305.672 762.328,296.338 771,286.5C 784.061,271.281 797.227,256.281 810.5,241.5 Z"/></g>
<g><path style="opacity:1" fill="#0b0b0b" d="M 552.5,273.5 C 563.02,272.282 570.853,276.282 576,285.5C 580.374,305.756 572.207,315.756 551.5,315.5C 544.389,314.026 539.223,310.026 536,303.5C 531.917,288.111 537.417,278.111 552.5,273.5 Z"/></g>
<g><path style="opacity:1" fill="#0c0c0c" d="M 688.5,279.5 C 705.549,279.7 712.383,288.034 709,304.5C 701.992,314.461 693.159,316.627 682.5,311C 675.475,303.217 674.642,294.717 680,285.5C 682.736,283.248 685.569,281.248 688.5,279.5 Z"/></g>
<g><path style="opacity:1" fill="#fbfbfb" d="M 182.5,292.5 C 185.457,300.753 189.29,308.753 194,316.5C 200.677,324.841 208.844,331.341 218.5,336C 200.72,344.713 188.887,358.547 183,377.5C 176.806,358.313 164.64,344.479 146.5,336C 165.688,327.462 177.688,312.962 182.5,292.5 Z"/></g>
<g><path style="opacity:1" fill="#f9f9f9" d="M 895.5,293.5 C 900.322,308.991 909.656,320.991 923.5,329.5C 910.159,337.352 900.993,348.685 896,363.5C 891.408,347.944 881.908,336.611 867.5,329.5C 882.435,321.894 891.768,309.894 895.5,293.5 Z"/></g>
<g><path style="opacity:1" fill="#fbfbfb" d="M 740.5,352.5 C 741.552,352.351 742.552,352.517 743.5,353C 733.552,355.256 723.552,357.256 713.5,359C 671.504,364.666 629.504,370.333 587.5,376C 560.581,378.965 533.581,380.132 506.5,379.5C 477.017,376.587 447.684,371.92 418.5,365.5C 392.49,358.33 366.823,349.83 341.5,340C 333.77,336.54 326.27,332.707 319,328.5C 318.207,332.423 318.374,336.256 319.5,340C 349.006,355.841 380.006,368.174 412.5,377C 424.165,379.899 435.832,382.732 447.5,385.5C 464.144,388.663 480.811,391.663 497.5,394.5C 511.805,396.364 526.138,398.031 540.5,399.5C 553.662,400.348 566.662,401.348 579.5,402.5C 574.5,402.5 569.5,402.5 564.5,402.5C 483.149,401.201 405.149,384.701 330.5,353C 322.597,349.467 315.097,345.301 308,340.5C 306.857,328.504 306.19,316.504 306,304.5C 412.645,348.859 523.812,368.693 639.5,364C 673.399,362.181 707.066,358.348 740.5,352.5 Z"/></g>
<g><path style="opacity:1" fill="#d2d2d2" d="M 418.5,365.5 C 421.707,367.771 425.707,369.771 430.5,371.5C 433.538,370.269 436.538,370.436 439.5,372C 437.833,372.333 436.167,372.667 434.5,373C 435.5,373.333 436.5,373.667 437.5,374C 439.856,374.155 442.189,374.155 444.5,374C 443.833,374.333 443.167,374.667 442.5,375C 446.758,377.105 448.425,380.605 447.5,385.5C 435.832,382.732 424.165,379.899 412.5,377C 380.006,368.174 349.006,355.841 319.5,340C 318.374,336.256 318.207,332.423 319,328.5C 326.27,332.707 333.77,336.54 341.5,340C 366.823,349.83 392.49,358.33 418.5,365.5 Z"/></g>
<g><path style="opacity:1" fill="#8e8e8e" d="M 749.5,380.5 C 748.351,380.209 747.684,379.376 747.5,378C 748.331,372.505 749.664,367.171 751.5,362C 750.552,361.517 749.552,361.351 748.5,361.5C 749.429,360.685 750.429,359.852 751.5,359C 751.263,356.712 751.263,354.212 751.5,351.5C 753.655,351.628 755.655,351.128 757.5,350C 756.552,349.517 755.552,349.351 754.5,349.5C 763.622,347.043 772.788,344.376 782,341.5C 782.5,341.833 783,342.167 783.5,342.5C 780.851,352.428 778.518,362.428 776.5,372.5C 767.421,374.871 758.421,377.538 749.5,380.5 Z"/></g>
<g><path style="opacity:1" fill="#bababa" d="M 754.5,349.5 C 755.552,349.351 756.552,349.517 757.5,350C 755.655,351.128 753.655,351.628 751.5,351.5C 751.263,354.212 751.263,356.712 751.5,359C 750.429,359.852 749.429,360.685 748.5,361.5C 722.176,369.658 695.176,375.158 667.5,378C 664.69,378.007 662.69,379.174 661.5,381.5C 660.71,380.391 660.21,379.058 660,377.5C 658.128,381.265 657.295,381.265 657.5,377.5C 656.808,378.025 656.308,378.692 656,379.5C 652.656,379.039 649.489,378.039 646.5,376.5C 644.772,378.226 642.772,379.559 640.5,380.5C 639.614,381.325 639.281,382.325 639.5,383.5C 634.266,384.364 628.933,384.364 623.5,383.5C 623.5,384.5 623.5,385.5 623.5,386.5C 615.483,386.499 607.483,386.166 599.5,385.5C 599.5,386.833 599.5,388.167 599.5,389.5C 588.575,389.547 577.909,390.88 567.5,393.5C 567.93,388.504 566.597,387.67 563.5,391C 564.55,393.503 563.55,395.003 560.5,395.5C 557.196,395.227 554.363,396.56 552,399.5C 548.066,398.179 544.233,398.179 540.5,399.5C 526.138,398.031 511.805,396.364 497.5,394.5C 499.264,391.035 501.597,390.701 504.5,393.5C 505.833,392.833 507.167,392.167 508.5,391.5C 509.167,388.833 509.833,386.167 510.5,383.5C 511.314,385.766 511.814,388.1 512,390.5C 514.018,388.65 515.851,386.65 517.5,384.5C 513.141,382.16 508.475,380.66 503.5,380C 504.448,379.517 505.448,379.351 506.5,379.5C 533.581,380.132 560.581,378.965 587.5,376C 629.504,370.333 671.504,364.666 713.5,359C 723.552,357.256 733.552,355.256 743.5,353C 742.552,352.517 741.552,352.351 740.5,352.5C 744.958,351.085 749.625,350.085 754.5,349.5 Z"/></g>
<g><path style="opacity:1" fill="#535353" d="M 748.5,361.5 C 749.552,361.351 750.552,361.517 751.5,362C 749.664,367.171 748.331,372.505 747.5,378C 747.684,379.376 748.351,380.209 749.5,380.5C 737.136,384.594 724.469,388.094 711.5,391C 691.531,394.16 671.531,396.994 651.5,399.5C 651.893,397.716 652.559,396.05 653.5,394.5C 656.414,390.342 659.081,386.009 661.5,381.5C 662.69,379.174 664.69,378.007 667.5,378C 695.176,375.158 722.176,369.658 748.5,361.5 Z"/></g>
<g><path style="opacity:1" fill="#b0b0b0" d="M 661.5,381.5 C 659.081,386.009 656.414,390.342 653.5,394.5C 652.732,393.737 652.232,392.737 652,391.5C 649.989,395.002 648.656,395.002 648,391.5C 647.517,392.448 647.351,393.448 647.5,394.5C 631.361,396.135 615.361,398.135 599.5,400.5C 601.078,401.298 602.744,401.798 604.5,402C 596.173,402.5 587.84,402.666 579.5,402.5C 566.662,401.348 553.662,400.348 540.5,399.5C 544.233,398.179 548.066,398.179 552,399.5C 554.363,396.56 557.196,395.227 560.5,395.5C 563.55,395.003 564.55,393.503 563.5,391C 566.597,387.67 567.93,388.504 567.5,393.5C 577.909,390.88 588.575,389.547 599.5,389.5C 599.5,388.167 599.5,386.833 599.5,385.5C 607.483,386.166 615.483,386.499 623.5,386.5C 623.5,385.5 623.5,384.5 623.5,383.5C 628.933,384.364 634.266,384.364 639.5,383.5C 639.281,382.325 639.614,381.325 640.5,380.5C 642.772,379.559 644.772,378.226 646.5,376.5C 649.489,378.039 652.656,379.039 656,379.5C 656.308,378.692 656.808,378.025 657.5,377.5C 657.295,381.265 658.128,381.265 660,377.5C 660.21,379.058 660.71,380.391 661.5,381.5 Z"/></g>
<g><path style="opacity:1" fill="#c7c7c7" d="M 418.5,365.5 C 447.684,371.92 477.017,376.587 506.5,379.5C 505.448,379.351 504.448,379.517 503.5,380C 508.475,380.66 513.141,382.16 517.5,384.5C 515.851,386.65 514.018,388.65 512,390.5C 511.814,388.1 511.314,385.766 510.5,383.5C 509.833,386.167 509.167,388.833 508.5,391.5C 507.167,392.167 505.833,392.833 504.5,393.5C 501.597,390.701 499.264,391.035 497.5,394.5C 480.811,391.663 464.144,388.663 447.5,385.5C 448.425,380.605 446.758,377.105 442.5,375C 443.167,374.667 443.833,374.333 444.5,374C 442.189,374.155 439.856,374.155 437.5,374C 436.5,373.667 435.5,373.333 434.5,373C 436.167,372.667 437.833,372.333 439.5,372C 436.538,370.436 433.538,370.269 430.5,371.5C 425.707,369.771 421.707,367.771 418.5,365.5 Z"/></g>
<g><path style="opacity:0.962" fill="#000000" d="M 849.5,389.5 C 871.81,389.975 881.977,401.309 880,423.5C 874.491,438.007 863.991,444.507 848.5,443C 831.801,437.362 824.801,426.029 827.5,409C 831.624,398.7 838.957,392.2 849.5,389.5 Z"/></g>
<g><path style="opacity:1" fill="#fefefe" d="M 328.5,394.5 C 350.69,402.342 373.357,408.342 396.5,412.5C 447.398,425.013 499.065,432.679 551.5,435.5C 589.318,437.155 627.318,437.989 665.5,438C 672.842,438.834 680.175,439.668 687.5,440.5C 709.75,446.413 728.417,458.08 743.5,475.5C 752.402,485.412 759.736,496.412 765.5,508.5C 770.146,517.932 774.313,527.598 778,537.5C 780.28,547.785 783.114,557.785 786.5,567.5C 789.326,588.738 785.993,608.904 776.5,628C 794.763,657.53 793.596,686.363 773,714.5C 758.185,735.492 738.685,750.159 714.5,758.5C 727.604,749.699 740.437,738.699 753,725.5C 766.513,709.989 774.846,691.989 778,671.5C 778.978,660.689 778.311,650.022 776,639.5C 771.633,680.436 752.799,712.603 719.5,736C 699.828,747.705 678.494,753.538 655.5,753.5C 652.944,752.457 650.777,750.79 649,748.5C 650.396,760.911 647.396,772.244 640,782.5C 639.667,797.5 639.333,812.5 639,827.5C 634.854,838.867 627.021,843.033 615.5,840C 612.732,838.238 611.232,835.738 611,832.5C 610.667,823.167 610.333,813.833 610,804.5C 606.301,795.066 599.468,791.566 589.5,794C 584.734,796.429 581.9,800.263 581,805.5C 580.667,816.167 580.333,826.833 580,837.5C 576.534,844.405 570.868,847.738 563,847.5C 554.711,848.029 549.378,844.363 547,836.5C 546.667,825.833 546.333,815.167 546,804.5C 541.179,793.339 533.345,790.506 522.5,796C 519.894,797.938 518.061,800.438 517,803.5C 516.667,815.167 516.333,826.833 516,838.5C 514.895,841.937 512.728,844.437 509.5,846C 500.736,849.027 492.903,847.527 486,841.5C 484.561,839.725 483.561,837.725 483,835.5C 482.667,825.5 482.333,815.5 482,805.5C 478.968,795.804 472.468,791.971 462.5,794C 458,795.833 454.833,799 453,803.5C 452.667,812.833 452.333,822.167 452,831.5C 451.234,837.767 447.734,841.101 441.5,841.5C 432.008,840.175 426.175,834.842 424,825.5C 423.667,811.167 423.333,796.833 423,782.5C 416.244,772.564 412.911,761.564 413,749.5C 411.362,751.734 409.195,753.067 406.5,753.5C 374.222,756.765 344.889,749.098 318.5,730.5C 325.17,741.964 334.837,750.797 347.5,757C 348.738,757.69 348.738,758.19 347.5,758.5C 312.944,745.778 289.111,722.112 276,687.5C 271.585,673.467 271.585,659.467 276,645.5C 278.929,639.305 282.096,633.305 285.5,627.5C 274.108,603.263 271.441,578.096 277.5,552C 276.668,551.312 276.002,551.479 275.5,552.5C 263.608,570.675 256.774,590.675 255,612.5C 254.667,620.167 254.333,627.833 254,635.5C 241.834,584.996 245.5,535.663 265,487.5C 279.318,453.002 299.485,422.502 325.5,396C 326.527,395.487 327.527,394.987 328.5,394.5 Z"/></g>
<g><path style="opacity:1" fill="#acacac" d="M 396.5,412.5 C 373.357,408.342 350.69,402.342 328.5,394.5C 330.146,392.188 332.146,390.188 334.5,388.5C 340.42,391.628 346.42,394.461 352.5,397C 367.318,402.104 381.985,407.271 396.5,412.5 Z"/></g>
<g><path style="opacity:1" fill="#979797" d="M 653.5,394.5 C 652.559,396.05 651.893,397.716 651.5,399.5C 622.451,403.132 593.451,404.132 564.5,402.5C 569.5,402.5 574.5,402.5 579.5,402.5C 587.84,402.666 596.173,402.5 604.5,402C 602.744,401.798 601.078,401.298 599.5,400.5C 615.361,398.135 631.361,396.135 647.5,394.5C 647.351,393.448 647.517,392.448 648,391.5C 648.656,395.002 649.989,395.002 652,391.5C 652.232,392.737 652.732,393.737 653.5,394.5 Z"/></g>
<g><path style="opacity:1" fill="#f0f0f0" d="M 850.5,411.5 C 859.537,410.666 861.537,413.833 856.5,421C 851.594,422.756 848.927,421.089 848.5,416C 848.519,414.167 849.185,412.667 850.5,411.5 Z"/></g>
<g><path style="opacity:1" fill="#a0a0a0" d="M 768.5,438.5 C 767.527,439.791 766.527,439.791 765.5,438.5C 764.347,441.152 762.513,443.152 760,444.5C 749.181,443.751 738.348,442.751 727.5,441.5C 727.5,442.5 727.5,443.5 727.5,444.5C 724.833,444.5 722.167,444.5 719.5,444.5C 719.5,443.167 719.5,441.833 719.5,440.5C 708.436,441.302 697.769,441.302 687.5,440.5C 680.175,439.668 672.842,438.834 665.5,438C 627.318,437.989 589.318,437.155 551.5,435.5C 605.273,437.657 658.606,433.823 711.5,424C 723.823,421.378 735.99,418.211 748,414.5C 756.095,421.428 762.929,429.428 768.5,438.5 Z"/></g>
<g><path style="opacity:0.97" fill="#010101" d="M 910.5,447.5 C 917.648,447.324 923.481,449.991 928,455.5C 930.752,463.928 933.752,472.262 937,480.5C 942.116,486.058 948.116,490.391 955,493.5C 960.895,501.186 960.895,508.853 955,516.5C 950.594,520.141 945.761,523.141 940.5,525.5C 934.143,533.047 929.977,541.714 928,551.5C 923.037,558.714 916.203,561.214 907.5,559C 904.098,557.6 901.264,555.433 899,552.5C 896.225,544.281 892.891,536.281 889,528.5C 887.833,527.333 886.667,526.167 885.5,525C 880.508,522.839 875.841,520.172 871.5,517C 865.013,509.226 865.013,501.393 871.5,493.5C 875.873,490.314 880.54,487.647 885.5,485.5C 887.185,483.983 888.685,482.316 890,480.5C 892.962,471.331 896.296,462.331 900,453.5C 903.101,450.648 906.601,448.648 910.5,447.5 Z"/></g>
<g><path style="opacity:1" fill="#afafaf" d="M 768.5,438.5 C 778.587,450.991 786.921,464.658 793.5,479.5C 792.07,479.579 790.736,479.246 789.5,478.5C 789.12,476.979 788.954,475.313 789,473.5C 788.667,474.167 788.333,474.833 788,475.5C 787.751,474.376 787.251,473.376 786.5,472.5C 784.744,474.554 784.41,476.721 785.5,479C 785.167,479.167 784.833,479.333 784.5,479.5C 783.571,478.311 783.238,476.978 783.5,475.5C 775.52,476.497 767.52,477.497 759.5,478.5C 758.68,480.111 757.346,480.778 755.5,480.5C 754.8,475.217 752.967,474.55 750,478.5C 748.647,477.315 747.48,475.981 746.5,474.5C 745.583,475.127 744.583,475.461 743.5,475.5C 728.417,458.08 709.75,446.413 687.5,440.5C 697.769,441.302 708.436,441.302 719.5,440.5C 719.5,441.833 719.5,443.167 719.5,444.5C 722.167,444.5 724.833,444.5 727.5,444.5C 727.5,443.5 727.5,442.5 727.5,441.5C 738.348,442.751 749.181,443.751 760,444.5C 762.513,443.152 764.347,441.152 765.5,438.5C 766.527,439.791 767.527,439.791 768.5,438.5 Z"/></g>
<g><path style="opacity:0.969" fill="#010101" d="M 135.5,450.5 C 142.617,450.308 148.45,452.974 153,458.5C 155.666,466.495 158.333,474.495 161,482.5C 162.785,485.952 165.285,488.786 168.5,491C 184.243,496.911 188.077,507.078 180,521.5C 173.183,524.642 167.183,528.976 162,534.5C 158.672,542.452 155.338,550.452 152,558.5C 143.321,567.46 134.321,567.793 125,559.5C 122.221,554.499 120.221,549.166 119,543.5C 117.254,539.673 115.254,536.007 113,532.5C 106.823,528.412 100.823,524.078 95,519.5C 90.3878,512.567 90.3878,505.567 95,498.5C 99.7571,494.869 104.924,491.869 110.5,489.5C 111.48,488.019 112.647,486.685 114,485.5C 117.79,476.675 121.123,467.675 124,458.5C 127.15,454.689 130.983,452.023 135.5,450.5 Z"/></g>
<g><path style="opacity:1" fill="#f9f9f9" d="M 912.5,481.5 C 915.438,485.975 918.272,490.642 921,495.5C 924.201,499.036 927.701,502.203 931.5,505C 923.065,511.03 916.899,518.863 913,528.5C 909.469,518.631 903.302,510.797 894.5,505C 904.001,499.824 910.001,491.991 912.5,481.5 Z"/></g>
<g><path style="opacity:1" fill="#f8f8f8" d="M 137.5,485.5 C 140.53,489.863 143.363,494.53 146,499.5C 149.39,503.393 153.223,506.727 157.5,509.5C 148.649,515.184 142.149,522.85 138,532.5C 133.998,522.831 127.498,515.331 118.5,510C 127.692,503.984 134.025,495.817 137.5,485.5 Z"/></g>
<g><path style="opacity:1" fill="#bbbbbb" d="M 793.5,479.5 C 800.158,492.834 805.158,506.834 808.5,521.5C 807.732,520.737 807.232,519.737 807,518.5C 804.645,519.131 802.478,519.131 800.5,518.5C 799.518,516.166 799.351,513.832 800,511.5C 795.902,512.559 791.735,512.559 787.5,511.5C 785.68,511.649 784.18,512.316 783,513.5C 780.092,511.975 776.926,510.975 773.5,510.5C 772.141,508.308 770.308,506.641 768,505.5C 767.623,506.942 766.79,507.942 765.5,508.5C 759.736,496.412 752.402,485.412 743.5,475.5C 744.583,475.461 745.583,475.127 746.5,474.5C 747.48,475.981 748.647,477.315 750,478.5C 752.967,474.55 754.8,475.217 755.5,480.5C 757.346,480.778 758.68,480.111 759.5,478.5C 767.52,477.497 775.52,476.497 783.5,475.5C 783.238,476.978 783.571,478.311 784.5,479.5C 784.833,479.333 785.167,479.167 785.5,479C 784.41,476.721 784.744,474.554 786.5,472.5C 787.251,473.376 787.751,474.376 788,475.5C 788.333,474.833 788.667,474.167 789,473.5C 788.954,475.313 789.12,476.979 789.5,478.5C 790.736,479.246 792.07,479.579 793.5,479.5 Z"/></g>
<g><path style="opacity:1" fill="#c6c6c6" d="M 808.5,521.5 C 811.633,531.839 813.633,542.505 814.5,553.5C 813.616,550.977 812.782,548.31 812,545.5C 811.424,547.377 811.591,549.211 812.5,551C 812.37,552.059 811.87,552.892 811,553.5C 810.667,551.833 810.333,550.167 810,548.5C 808.957,552.226 808.457,551.893 808.5,547.5C 804.068,547.447 799.734,548.114 795.5,549.5C 793.68,549.351 792.18,548.684 791,547.5C 789.162,549.663 787.995,551.663 787.5,553.5C 786.542,553.047 785.708,552.381 785,551.5C 784.833,552 784.667,552.5 784.5,553C 785.945,557.727 786.612,562.56 786.5,567.5C 783.114,557.785 780.28,547.785 778,537.5C 774.313,527.598 770.146,517.932 765.5,508.5C 766.79,507.942 767.623,506.942 768,505.5C 770.308,506.641 772.141,508.308 773.5,510.5C 776.926,510.975 780.092,511.975 783,513.5C 784.18,512.316 785.68,511.649 787.5,511.5C 791.735,512.559 795.902,512.559 800,511.5C 799.351,513.832 799.518,516.166 800.5,518.5C 802.478,519.131 804.645,519.131 807,518.5C 807.232,519.737 807.732,520.737 808.5,521.5 Z"/></g>
<g><path style="opacity:1" fill="#000000" d="M 396.5,525.5 C 434.034,523.507 460.534,539.507 476,573.5C 486.048,606.146 478.548,633.98 453.5,657C 429.437,674.897 403.437,678.23 375.5,667C 340.858,647.784 327.358,618.617 335,579.5C 345.153,549.503 365.653,531.503 396.5,525.5 Z"/></g>
<g><path style="opacity:1" fill="#000000" d="M 641.5,531.5 C 679.034,529.507 705.534,545.507 721,579.5C 731.048,612.146 723.548,639.98 698.5,663C 674.437,680.897 648.437,684.23 620.5,673C 585.858,653.784 572.358,624.617 580,585.5C 590.153,555.503 610.653,537.503 641.5,531.5 Z"/></g>
<g><path style="opacity:1" fill="#cecece" d="M 814.5,553.5 C 816.452,566.282 816.785,578.949 815.5,591.5C 815.828,586.125 815.495,580.792 814.5,575.5C 813.749,576.376 813.249,577.376 813,578.5C 812.178,576.212 811.511,573.878 811,571.5C 810.51,572.793 810.343,574.127 810.5,575.5C 809.5,575.5 808.5,575.5 807.5,575.5C 807.719,576.675 807.386,577.675 806.5,578.5C 805.667,577.5 804.833,576.5 804,575.5C 803.52,577.133 802.687,578.466 801.5,579.5C 797.901,570.305 793.234,561.638 787.5,553.5C 787.995,551.663 789.162,549.663 791,547.5C 792.18,548.684 793.68,549.351 795.5,549.5C 799.734,548.114 804.068,547.447 808.5,547.5C 808.457,551.893 808.957,552.226 810,548.5C 810.333,550.167 810.667,551.833 811,553.5C 811.87,552.892 812.37,552.059 812.5,551C 811.591,549.211 811.424,547.377 812,545.5C 812.782,548.31 813.616,550.977 814.5,553.5 Z"/></g>
<g><path style="opacity:1" fill="#e7e7e7" d="M 815.5,591.5 C 814.31,605.642 812.143,619.642 809,633.5C 809.118,615.11 806.618,597.11 801.5,579.5C 802.687,578.466 803.52,577.133 804,575.5C 804.833,576.5 805.667,577.5 806.5,578.5C 807.386,577.675 807.719,576.675 807.5,575.5C 808.5,575.5 809.5,575.5 810.5,575.5C 810.343,574.127 810.51,572.793 811,571.5C 811.511,573.878 812.178,576.212 813,578.5C 813.249,577.376 813.749,576.376 814.5,575.5C 815.495,580.792 815.828,586.125 815.5,591.5 Z"/></g>
<g><path style="opacity:0.961" fill="#000000" d="M 134.5,587.5 C 159.651,587.15 171.151,599.483 169,624.5C 162.878,640.152 151.378,646.985 134.5,645C 116.968,639.121 109.801,626.954 113,608.5C 115.004,603.167 117.837,598.334 121.5,594C 125.647,591.26 129.98,589.093 134.5,587.5 Z"/></g>
<g><path style="opacity:0.961" fill="#000000" d="M 907.5,593.5 C 932.093,592.26 943.927,603.927 943,628.5C 934.412,649.696 919.579,655.862 898.5,647C 886.095,637.104 882.595,624.604 888,609.5C 892.555,601.659 899.055,596.326 907.5,593.5 Z"/></g>
<g><path style="opacity:1" fill="#f4f4f4" d="M 136.5,609.5 C 143.045,607.778 147.045,610.111 148.5,616.5C 145.984,623.549 141.484,625.215 135,621.5C 132.964,617.182 133.464,613.182 136.5,609.5 Z"/></g>
<g><path style="opacity:1" fill="#f6f6f6" d="M 912.5,614.5 C 920.032,614.532 922.865,618.199 921,625.5C 916.929,630.239 912.596,630.572 908,626.5C 906.309,621.131 907.809,617.131 912.5,614.5 Z"/></g>
<g><path style="opacity:1" fill="#0b0b0b" d="M 526.5,642.5 C 532.613,641.41 537.779,643.077 542,647.5C 552.333,670.833 562.667,694.167 573,717.5C 573.901,731.266 567.401,737.766 553.5,737C 549.953,736.263 547.12,734.43 545,731.5C 540.03,719.237 535.364,706.904 531,694.5C 527.333,705.167 523.667,715.833 520,726.5C 515.989,734.511 509.489,738.011 500.5,737C 490.684,732.868 487.184,725.702 490,715.5C 499.709,693.079 509.709,670.746 520,648.5C 522.063,646.266 524.229,644.266 526.5,642.5 Z"/></g>
<g><path style="opacity:1" fill="#c0c0c0" d="M 714.5,758.5 C 697.673,764.887 680.673,765.054 663.5,759C 660.379,757.694 657.713,755.86 655.5,753.5C 678.494,753.538 699.828,747.705 719.5,736C 752.799,712.603 771.633,680.436 776,639.5C 778.311,650.022 778.978,660.689 778,671.5C 774.846,691.989 766.513,709.989 753,725.5C 740.437,738.699 727.604,749.699 714.5,758.5 Z"/></g>
<g><path style="opacity:1" fill="#fcfcfc" d="M 240.5,696.5 C 240.586,697.496 240.252,698.329 239.5,699C 195.541,707.467 166.874,732.967 153.5,775.5C 148.128,796.995 149.961,817.995 159,838.5C 157.133,827.786 155.633,816.953 154.5,806C 154.728,796.638 156.061,787.471 158.5,778.5C 171.055,740.943 196.722,718.276 235.5,710.5C 236.833,710.5 238.167,710.5 239.5,710.5C 241.758,722.107 246.258,732.774 253,742.5C 258.55,743.205 264.05,744.205 269.5,745.5C 275.321,755.994 282.988,764.994 292.5,772.5C 294.167,774.833 296.167,776.833 298.5,778.5C 318.226,817.292 309.059,846.959 271,867.5C 270.617,866.944 270.117,866.611 269.5,866.5C 268.312,861.091 267.145,855.757 266,850.5C 275.454,847.617 283.121,842.283 289,834.5C 296.384,821.487 294.551,809.987 283.5,800C 281.283,798.725 278.949,797.725 276.5,797C 262.221,795.736 247.888,795.069 233.5,795C 224.926,792.338 223.259,787.338 228.5,780C 235.585,775.796 243.252,774.462 251.5,776C 255.533,777.104 259.366,778.604 263,780.5C 267.1,779.701 270.934,778.201 274.5,776C 275.804,775.196 276.471,774.029 276.5,772.5C 273.779,766.283 269.113,762.117 262.5,760C 256.313,758.15 249.98,756.984 243.5,756.5C 242.001,749.993 239.668,743.827 236.5,738C 232.566,737.474 228.9,738.307 225.5,740.5C 225.167,741.5 224.833,742.5 224.5,743.5C 226.596,748.979 227.929,754.646 228.5,760.5C 207.685,767.799 201.185,781.799 209,802.5C 212.414,807.252 216.914,810.419 222.5,812C 237.112,813.266 251.779,813.933 266.5,814C 275.181,818.105 275.847,823.438 268.5,830C 259.927,834.019 250.927,835.353 241.5,834C 237.296,831.769 233.129,829.602 229,827.5C 224.154,828.424 219.82,830.424 216,833.5C 215.333,835.167 215.333,836.833 216,838.5C 225.019,848.959 236.519,853.792 250.5,853C 251.647,856.794 252.647,860.627 253.5,864.5C 253.5,866.167 253.5,867.833 253.5,869.5C 242.849,868.294 232.682,865.294 223,860.5C 222.48,862.289 222.813,863.956 224,865.5C 228.887,872.914 233.387,880.414 237.5,888C 236.346,892.493 233.679,895.826 229.5,898C 236.486,900.883 243.819,902.049 251.5,901.5C 262.491,901.793 273.158,900.127 283.5,896.5C 284.107,896.624 284.44,896.957 284.5,897.5C 283.339,901.309 282.339,905.143 281.5,909C 221.96,920.646 177.793,899.812 149,846.5C 127.85,792.664 139.35,747.164 183.5,710C 198.43,699.12 214.93,691.62 233,687.5C 237.351,688.824 239.851,691.824 240.5,696.5 Z"/></g>
<g><path style="opacity:1" fill="#cfcfcf" d="M 843.5,692.5 C 842.448,692.351 841.448,692.517 840.5,693C 839.058,696.268 837.058,699.101 834.5,701.5C 829.693,701.325 825.36,699.991 821.5,697.5C 822.448,693.243 824.615,689.91 828,687.5C 833.371,688.902 838.537,690.569 843.5,692.5 Z"/></g>
<g><path style="opacity:1" fill="#f9f9f9" d="M 843.5,692.5 C 881.133,705.633 906.633,730.966 920,768.5C 931.28,818.941 916.78,860.108 876.5,892C 843.108,913.632 807.442,918.466 769.5,906.5C 769.763,902.4 769.43,898.4 768.5,894.5C 773.58,895.54 778.58,896.873 783.5,898.5C 797.569,901.859 811.569,902.192 825.5,899.5C 833.159,898.42 840.492,896.42 847.5,893.5C 853.151,891.341 858.484,888.674 863.5,885.5C 897.338,863.496 913.504,832.163 912,791.5C 904.562,745.604 878.728,715.604 834.5,701.5C 837.058,699.101 839.058,696.268 840.5,693C 841.448,692.517 842.448,692.351 843.5,692.5 Z"/></g>
<g><path style="opacity:1" fill="#d4d4d4" d="M 815.5,709.5 C 819.924,709.652 824.257,710.319 828.5,711.5C 825.35,721.096 822.35,730.762 819.5,740.5C 809.636,741.733 800.636,745.233 792.5,751C 779.619,762.88 767.786,775.714 757,789.5C 754.842,794.159 753.009,798.825 751.5,803.5C 748.554,804.489 745.887,805.822 743.5,807.5C 743.184,802.156 742.684,796.822 742,791.5C 739.266,790.638 739.099,789.805 741.5,789C 740.248,787.172 740.248,785.339 741.5,783.5C 755.72,775.796 768.72,766.296 780.5,755C 793.945,741.074 805.612,725.907 815.5,709.5 Z"/></g>
<g><path style="opacity:1" fill="#fdfdfd" d="M 828.5,711.5 C 851.52,717.427 870.353,729.761 885,748.5C 889.232,754.298 892.399,760.631 894.5,767.5C 894.916,789.519 888.416,809.186 875,826.5C 865.684,837.158 855.184,846.325 843.5,854C 835.763,858.519 827.429,861.353 818.5,862.5C 812.141,862.346 805.808,862.679 799.5,863.5C 796.136,863.304 793.136,862.304 790.5,860.5C 792.088,856.157 794.088,851.99 796.5,848C 801.738,848.807 807.072,849.307 812.5,849.5C 833.715,849.12 844.215,838.454 844,817.5C 841.709,811.206 837.875,806.039 832.5,802C 825.167,797 817.833,792 810.5,787C 804.598,781.523 805.265,777.19 812.5,774C 822.538,773.016 830.705,776.516 837,784.5C 839.549,794.168 845.715,797.335 855.5,794C 859.104,792.666 860.271,790.166 859,786.5C 855.258,776.932 849.425,768.932 841.5,762.5C 844.436,757.627 847.103,752.627 849.5,747.5C 847.327,742.748 843.66,740.582 838.5,741C 834.671,745.656 831.337,750.656 828.5,756C 821.53,755.545 814.53,755.545 807.5,756C 798.911,758.043 792.411,762.876 788,770.5C 784.191,784.384 788.358,795.218 800.5,803C 808.444,807.889 815.944,813.389 823,819.5C 825.354,825.293 823.521,829.126 817.5,831C 805.918,832.291 796.418,828.458 789,819.5C 786.645,815.909 784.812,812.076 783.5,808C 777.884,804.985 772.217,804.818 766.5,807.5C 765.471,813.83 766.638,819.83 770,825.5C 774.513,830.678 779.013,835.845 783.5,841C 781.716,845.258 779.383,849.092 776.5,852.5C 759.956,840.412 751.622,824.079 751.5,803.5C 753.009,798.825 754.842,794.159 757,789.5C 767.786,775.714 779.619,762.88 792.5,751C 800.636,745.233 809.636,741.733 819.5,740.5C 822.35,730.762 825.35,721.096 828.5,711.5 Z"/></g>
<g><path style="opacity:1" fill="#d3d3d3" d="M 235.5,710.5 C 238.962,709.518 242.629,709.185 246.5,709.5C 253.327,720.477 260.66,731.144 268.5,741.5C 268.833,742.833 269.167,744.167 269.5,745.5C 264.05,744.205 258.55,743.205 253,742.5C 246.258,732.774 241.758,722.107 239.5,710.5C 238.167,710.5 236.833,710.5 235.5,710.5 Z"/></g>
<g><path style="opacity:1" fill="#616161" d="M 240.5,696.5 C 242.736,700.645 244.736,704.978 246.5,709.5C 242.629,709.185 238.962,709.518 235.5,710.5C 196.722,718.276 171.055,740.943 158.5,778.5C 157.4,776.723 156.566,774.723 156,772.5C 155.83,774.715 155.163,776.715 154,778.5C 153.517,777.552 153.351,776.552 153.5,775.5C 166.874,732.967 195.541,707.467 239.5,699C 240.252,698.329 240.586,697.496 240.5,696.5 Z"/></g>
<g><path style="opacity:1" fill="#0c0c0c" d="M 269.5,866.5 C 268.721,871.417 265.721,873.75 260.5,873.5C 258.626,873.61 257.126,872.944 256,871.5C 255.302,868.996 254.469,866.663 253.5,864.5C 252.647,860.627 251.647,856.794 250.5,853C 236.519,853.792 225.019,848.959 216,838.5C 215.333,836.833 215.333,835.167 216,833.5C 219.82,830.424 224.154,828.424 229,827.5C 233.129,829.602 237.296,831.769 241.5,834C 250.927,835.353 259.927,834.019 268.5,830C 275.847,823.438 275.181,818.105 266.5,814C 251.779,813.933 237.112,813.266 222.5,812C 216.914,810.419 212.414,807.252 209,802.5C 201.185,781.799 207.685,767.799 228.5,760.5C 227.929,754.646 226.596,748.979 224.5,743.5C 224.833,742.5 225.167,741.5 225.5,740.5C 228.9,738.307 232.566,737.474 236.5,738C 239.668,743.827 242.001,749.993 243.5,756.5C 249.98,756.984 256.313,758.15 262.5,760C 269.113,762.117 273.779,766.283 276.5,772.5C 276.471,774.029 275.804,775.196 274.5,776C 270.934,778.201 267.1,779.701 263,780.5C 259.366,778.604 255.533,777.104 251.5,776C 243.252,774.462 235.585,775.796 228.5,780C 223.259,787.338 224.926,792.338 233.5,795C 247.888,795.069 262.221,795.736 276.5,797C 278.949,797.725 281.283,798.725 283.5,800C 294.551,809.987 296.384,821.487 289,834.5C 283.121,842.283 275.454,847.617 266,850.5C 267.145,855.757 268.312,861.091 269.5,866.5 Z"/></g>
<g><path style="opacity:1" fill="#0d0d0d" d="M 790.5,860.5 C 786.789,865.202 782.456,865.702 777.5,862C 773.834,859.175 773.501,856.008 776.5,852.5C 779.383,849.092 781.716,845.258 783.5,841C 779.013,835.845 774.513,830.678 770,825.5C 766.638,819.83 765.471,813.83 766.5,807.5C 772.217,804.818 777.884,804.985 783.5,808C 784.812,812.076 786.645,815.909 789,819.5C 796.418,828.458 805.918,832.291 817.5,831C 823.521,829.126 825.354,825.293 823,819.5C 815.944,813.389 808.444,807.889 800.5,803C 788.358,795.218 784.191,784.384 788,770.5C 792.411,762.876 798.911,758.043 807.5,756C 814.53,755.545 821.53,755.545 828.5,756C 831.337,750.656 834.671,745.656 838.5,741C 843.66,740.582 847.327,742.748 849.5,747.5C 847.103,752.627 844.436,757.627 841.5,762.5C 849.425,768.932 855.258,776.932 859,786.5C 860.271,790.166 859.104,792.666 855.5,794C 845.715,797.335 839.549,794.168 837,784.5C 830.705,776.516 822.538,773.016 812.5,774C 805.265,777.19 804.598,781.523 810.5,787C 817.833,792 825.167,797 832.5,802C 837.875,806.039 841.709,811.206 844,817.5C 844.215,838.454 833.715,849.12 812.5,849.5C 807.072,849.307 801.738,848.807 796.5,848C 794.088,851.99 792.088,856.157 790.5,860.5 Z"/></g>
<g><path style="opacity:1" fill="#bcbcbc" d="M 406.5,753.5 C 403.898,755.81 400.898,757.643 397.5,759C 380.68,765.05 364.013,764.883 347.5,758.5C 348.738,758.19 348.738,757.69 347.5,757C 334.837,750.797 325.17,741.964 318.5,730.5C 344.889,749.098 374.222,756.765 406.5,753.5 Z"/></g>
<g><path style="opacity:1" fill="#b6b6b6" d="M 268.5,741.5 C 274.806,748.14 281.139,754.807 287.5,761.5C 287.389,762.117 287.056,762.617 286.5,763C 288.731,764.61 290.731,766.443 292.5,768.5C 291.637,769.726 291.637,771.06 292.5,772.5C 282.988,764.994 275.321,755.994 269.5,745.5C 269.167,744.167 268.833,742.833 268.5,741.5 Z"/></g>
<g><path style="opacity:1" fill="#595959" d="M 821.5,697.5 C 825.36,699.991 829.693,701.325 834.5,701.5C 878.728,715.604 904.562,745.604 912,791.5C 913.504,832.163 897.338,863.496 863.5,885.5C 862.448,885.649 861.448,885.483 860.5,885C 865.81,883.202 865.476,882.202 859.5,882C 861.167,881.667 862.833,881.333 864.5,881C 863.692,880.692 863.025,880.192 862.5,879.5C 864.358,875.39 863.358,872.39 859.5,870.5C 891.778,847.873 904.611,816.873 898,777.5C 897.698,773.755 896.531,770.422 894.5,767.5C 892.399,760.631 889.232,754.298 885,748.5C 870.353,729.761 851.52,717.427 828.5,711.5C 824.257,710.319 819.924,709.652 815.5,709.5C 816.562,704.947 818.562,700.947 821.5,697.5 Z"/></g>
<g><path style="opacity:1" fill="#7c7c7c" d="M 158.5,778.5 C 156.061,787.471 154.728,796.638 154.5,806C 155.633,816.953 157.133,827.786 159,838.5C 149.961,817.995 148.128,796.995 153.5,775.5C 153.351,776.552 153.517,777.552 154,778.5C 155.163,776.715 155.83,774.715 156,772.5C 156.566,774.723 157.4,776.723 158.5,778.5 Z"/></g>
<g><path style="opacity:1" fill="#cacaca" d="M 741.5,783.5 C 740.248,785.339 740.248,787.172 741.5,789C 739.099,789.805 739.266,790.638 742,791.5C 742.684,796.822 743.184,802.156 743.5,807.5C 745.887,805.822 748.554,804.489 751.5,803.5C 751.622,824.079 759.956,840.412 776.5,852.5C 773.501,856.008 773.834,859.175 777.5,862C 782.456,865.702 786.789,865.202 790.5,860.5C 793.136,862.304 796.136,863.304 799.5,863.5C 805.808,862.679 812.141,862.346 818.5,862.5C 819.919,863.451 821.585,863.784 823.5,863.5C 823.5,866.167 823.5,868.833 823.5,871.5C 819.574,871.232 815.907,872.065 812.5,874C 807.667,874.167 802.833,874.333 798,874.5C 787.832,873.708 777.665,873.041 767.5,872.5C 767.762,871.022 767.429,869.689 766.5,868.5C 763.511,867.249 762.511,865.249 763.5,862.5C 762.833,861.167 761.833,860.167 760.5,859.5C 759.571,858.311 759.238,856.978 759.5,855.5C 756.833,855.5 754.167,855.5 751.5,855.5C 751.665,852.482 751.498,849.482 751,846.5C 748.667,844.5 746.333,842.5 744,840.5C 743.781,841.938 743.281,843.271 742.5,844.5C 741.914,844.291 741.414,843.957 741,843.5C 739.646,839.637 739.146,835.637 739.5,831.5C 738.167,831.5 736.833,831.5 735.5,831.5C 735.5,828.833 735.5,826.167 735.5,823.5C 734.167,823.5 732.833,823.5 731.5,823.5C 731.5,820.833 731.5,818.167 731.5,815.5C 730.167,815.5 728.833,815.5 727.5,815.5C 728.479,809.861 726.979,805.194 723,801.5C 723.416,799.113 722.249,797.28 719.5,796C 721.5,796 723.5,796 725.5,796C 723.203,794.84 723.536,793.84 726.5,793C 724.065,792.925 723.398,792.092 724.5,790.5C 730.242,788.363 735.909,786.03 741.5,783.5 Z"/></g>
<g><path style="opacity:1" fill="#808080" d="M 287.5,761.5 C 306.401,776.783 327.401,788.116 350.5,795.5C 351.213,809.881 348.879,823.548 343.5,836.5C 343.196,833.478 342.696,830.478 342,827.5C 330.517,808.515 316.017,792.182 298.5,778.5C 296.167,776.833 294.167,774.833 292.5,772.5C 291.637,771.06 291.637,769.726 292.5,768.5C 290.731,766.443 288.731,764.61 286.5,763C 287.056,762.617 287.389,762.117 287.5,761.5 Z"/></g>
<g><path style="opacity:1" fill="#c4c4c4" d="M 894.5,767.5 C 896.531,770.422 897.698,773.755 898,777.5C 904.611,816.873 891.778,847.873 859.5,870.5C 855.5,872.167 851.5,873.833 847.5,875.5C 840.596,878.01 833.596,880.01 826.5,881.5C 820.131,881.347 813.797,881.68 807.5,882.5C 807.5,884.167 807.5,885.833 807.5,887.5C 803.774,887.177 800.107,887.511 796.5,888.5C 792.17,891.829 787.837,895.163 783.5,898.5C 778.58,896.873 773.58,895.54 768.5,894.5C 765.775,890.271 762.441,886.438 758.5,883C 744.717,873.217 732.55,861.717 722,848.5C 715.41,838.319 710.743,827.319 708,815.5C 707.169,808.808 707.336,802.142 708.5,795.5C 713.741,793.523 719.075,791.857 724.5,790.5C 723.398,792.092 724.065,792.925 726.5,793C 723.536,793.84 723.203,794.84 725.5,796C 723.5,796 721.5,796 719.5,796C 722.249,797.28 723.416,799.113 723,801.5C 726.979,805.194 728.479,809.861 727.5,815.5C 728.833,815.5 730.167,815.5 731.5,815.5C 731.5,818.167 731.5,820.833 731.5,823.5C 732.833,823.5 734.167,823.5 735.5,823.5C 735.5,826.167 735.5,828.833 735.5,831.5C 736.833,831.5 738.167,831.5 739.5,831.5C 739.146,835.637 739.646,839.637 741,843.5C 741.414,843.957 741.914,844.291 742.5,844.5C 743.281,843.271 743.781,841.938 744,840.5C 746.333,842.5 748.667,844.5 751,846.5C 751.498,849.482 751.665,852.482 751.5,855.5C 754.167,855.5 756.833,855.5 759.5,855.5C 759.238,856.978 759.571,858.311 760.5,859.5C 761.833,860.167 762.833,861.167 763.5,862.5C 762.511,865.249 763.511,867.249 766.5,868.5C 767.429,869.689 767.762,871.022 767.5,872.5C 777.665,873.041 787.832,873.708 798,874.5C 802.833,874.333 807.667,874.167 812.5,874C 815.907,872.065 819.574,871.232 823.5,871.5C 823.5,868.833 823.5,866.167 823.5,863.5C 821.585,863.784 819.919,863.451 818.5,862.5C 827.429,861.353 835.763,858.519 843.5,854C 855.184,846.325 865.684,837.158 875,826.5C 888.416,809.186 894.916,789.519 894.5,767.5 Z"/></g>
<g><path style="opacity:1" fill="#a7a7a7" d="M 367.5,797.5 C 371.5,797.5 375.5,797.5 379.5,797.5C 379.5,803.833 379.5,810.167 379.5,816.5C 378.833,818.167 378.167,819.833 377.5,821.5C 377.762,820.022 377.429,818.689 376.5,817.5C 373.299,815.738 370.299,813.738 367.5,811.5C 367.5,806.833 367.5,802.167 367.5,797.5 Z"/></g>
<g><path style="opacity:1" fill="#f9f9f9" d="M 367.5,811.5 C 370.299,813.738 373.299,815.738 376.5,817.5C 377.429,818.689 377.762,820.022 377.5,821.5C 372.229,846.719 360.229,868.052 341.5,885.5C 338.63,886.433 336.296,888.1 334.5,890.5C 327.159,894.837 319.825,899.17 312.5,903.5C 309.287,903.81 306.287,903.477 303.5,902.5C 310.388,895.114 318.055,888.614 326.5,883C 330.37,879.298 334.037,875.464 337.5,871.5C 354.382,855.07 364.382,835.07 367.5,811.5 Z"/></g>
<g><path style="opacity:1" fill="#181818" d="M 350.5,795.5 C 356.178,796.085 361.845,796.751 367.5,797.5C 367.5,802.167 367.5,806.833 367.5,811.5C 364.382,835.07 354.382,855.07 337.5,871.5C 337.565,871.062 337.399,870.728 337,870.5C 335.559,871.87 333.892,872.87 332,873.5C 331,872.167 330,872.167 329,873.5C 327.732,871.283 326.232,869.283 324.5,867.5C 322.517,868.982 320.684,870.649 319,872.5C 317.989,871.663 316.822,871.33 315.5,871.5C 327.812,862.191 337.146,850.524 343.5,836.5C 348.879,823.548 351.213,809.881 350.5,795.5 Z"/></g>
<g><path style="opacity:1" fill="#d0d0d0" d="M 298.5,778.5 C 316.017,792.182 330.517,808.515 342,827.5C 342.696,830.478 343.196,833.478 343.5,836.5C 337.146,850.524 327.812,862.191 315.5,871.5C 307.378,877.115 299.378,882.949 291.5,889C 288.79,891.628 286.456,894.461 284.5,897.5C 284.44,896.957 284.107,896.624 283.5,896.5C 273.158,900.127 262.491,901.793 251.5,901.5C 243.819,902.049 236.486,900.883 229.5,898C 233.679,895.826 236.346,892.493 237.5,888C 233.387,880.414 228.887,872.914 224,865.5C 222.813,863.956 222.48,862.289 223,860.5C 232.682,865.294 242.849,868.294 253.5,869.5C 253.5,867.833 253.5,866.167 253.5,864.5C 254.469,866.663 255.302,868.996 256,871.5C 257.126,872.944 258.626,873.61 260.5,873.5C 265.721,873.75 268.721,871.417 269.5,866.5C 270.117,866.611 270.617,866.944 271,867.5C 309.059,846.959 318.226,817.292 298.5,778.5 Z"/></g>
<g><path style="opacity:1" fill="#fafafa" d="M 405.5,853.5 C 416.526,868.844 431.526,875.844 450.5,874.5C 450.334,882.174 450.5,889.841 451,897.5C 451.785,899.286 452.951,900.786 454.5,902C 427.182,905.251 399.849,905.251 372.5,902C 372.167,901.667 371.833,901.333 371.5,901C 386.508,887.821 397.841,871.988 405.5,853.5 Z"/></g>
<g><path style="opacity:1" fill="#f3f3f3" d="M 661.5,865.5 C 656.833,866.833 652.167,866.833 647.5,865.5C 650.498,862.333 653.331,859 656,855.5C 658.619,858.406 660.453,861.739 661.5,865.5 Z"/></g>
<g><path style="opacity:1" fill="#7f7f7f" d="M 647.5,865.5 C 652.167,866.833 656.833,866.833 661.5,865.5C 663.326,867.147 664.66,869.147 665.5,871.5C 653.19,872.773 640.856,873.773 628.5,874.5C 635.21,872.312 641.543,869.312 647.5,865.5 Z"/></g>
<g><path style="opacity:1" fill="#fcfcfc" d="M 584.5,874.5 C 597.654,875.721 610.654,875.721 623.5,874.5C 625.167,874.5 626.833,874.5 628.5,874.5C 640.856,873.773 653.19,872.773 665.5,871.5C 675.438,885.772 687.438,898.105 701.5,908.5C 686.38,911.964 671.047,913.797 655.5,914C 630.143,914.796 604.81,914.629 579.5,913.5C 581.833,912.833 584.167,912.167 586.5,911.5C 587.833,903.5 587.833,895.5 586.5,887.5C 581.786,887.647 577.119,887.314 572.5,886.5C 568.131,886.533 563.798,886.2 559.5,885.5C 559.167,885.5 558.833,885.5 558.5,885.5C 554.881,884.756 551.215,884.423 547.5,884.5C 542.027,883.383 536.36,882.717 530.5,882.5C 527.63,881.366 524.63,880.7 521.5,880.5C 520.5,879.833 519.5,879.167 518.5,878.5C 524.037,876.148 529.204,873.148 534,869.5C 549.678,882.062 566.512,883.729 584.5,874.5 Z"/></g>
<g><path style="opacity:1" fill="#767676" d="M 379.5,816.5 C 376.954,845.273 364.287,868.273 341.5,885.5C 360.229,868.052 372.229,846.719 377.5,821.5C 378.167,819.833 378.833,818.167 379.5,816.5 Z"/></g>
<g><path style="opacity:1" fill="#848484" d="M 467.5,866.5 C 470.075,867.728 472.408,869.395 474.5,871.5C 475.665,879.479 475.832,887.479 475,895.5C 472,893.5 469,891.5 466,889.5C 465.333,882.5 465.333,875.5 466,868.5C 466.717,867.956 467.217,867.289 467.5,866.5 Z"/></g>
<g><path style="opacity:1" fill="#878787" d="M 623.5,874.5 C 610.654,875.721 597.654,875.721 584.5,874.5C 587.289,871.934 590.289,869.6 593.5,867.5C 602.672,873.136 612.672,875.469 623.5,874.5 Z"/></g>
<g><path style="opacity:1" fill="#757575" d="M 859.5,870.5 C 863.358,872.39 864.358,875.39 862.5,879.5C 863.025,880.192 863.692,880.692 864.5,881C 862.833,881.333 861.167,881.667 859.5,882C 865.476,882.202 865.81,883.202 860.5,885C 861.448,885.483 862.448,885.649 863.5,885.5C 858.484,888.674 853.151,891.341 847.5,893.5C 846.5,893.5 845.5,893.5 844.5,893.5C 844.5,891.833 844.5,890.167 844.5,888.5C 847.598,888.587 847.932,888.087 845.5,887C 846.742,883.941 848.075,880.941 849.5,878C 847.065,877.925 846.398,877.092 847.5,875.5C 851.5,873.833 855.5,872.167 859.5,870.5 Z"/></g>
<g><path style="opacity:1" fill="#b2b2b2" d="M 826.5,881.5 C 825.737,882.268 824.737,882.768 823.5,883C 827.5,884 827.5,885 823.5,886C 828.794,886.818 828.794,887.318 823.5,887.5C 823.223,890.448 823.556,893.281 824.5,896C 818.825,896.464 818.492,897.131 823.5,898C 822.5,898.333 821.5,898.667 820.5,899C 822.134,899.494 823.801,899.66 825.5,899.5C 811.569,902.192 797.569,901.859 783.5,898.5C 787.837,895.163 792.17,891.829 796.5,888.5C 800.107,887.511 803.774,887.177 807.5,887.5C 807.5,885.833 807.5,884.167 807.5,882.5C 813.797,881.68 820.131,881.347 826.5,881.5 Z"/></g>
<g><path style="opacity:1" fill="#989898" d="M 847.5,875.5 C 846.398,877.092 847.065,877.925 849.5,878C 848.075,880.941 846.742,883.941 845.5,887C 847.932,888.087 847.598,888.587 844.5,888.5C 844.5,890.167 844.5,891.833 844.5,893.5C 845.5,893.5 846.5,893.5 847.5,893.5C 840.492,896.42 833.159,898.42 825.5,899.5C 823.801,899.66 822.134,899.494 820.5,899C 821.5,898.667 822.5,898.333 823.5,898C 818.492,897.131 818.825,896.464 824.5,896C 823.556,893.281 823.223,890.448 823.5,887.5C 828.794,887.318 828.794,886.818 823.5,886C 827.5,885 827.5,884 823.5,883C 824.737,882.768 825.737,882.268 826.5,881.5C 833.596,880.01 840.596,878.01 847.5,875.5 Z"/></g>
<g><path style="opacity:1" fill="#8b8b8b" d="M 518.5,878.5 C 519.5,879.167 520.5,879.833 521.5,880.5C 520.167,880.5 518.833,880.5 517.5,880.5C 517.831,888.86 517.498,897.193 516.5,905.5C 513.292,904.198 509.959,903.531 506.5,903.5C 506.5,895.833 506.5,888.167 506.5,880.5C 510.742,880.921 514.742,880.254 518.5,878.5 Z"/></g>
<g><path style="opacity:1" fill="#969696" d="M 678.5,798.5 C 682.5,798.5 686.5,798.5 690.5,798.5C 690.544,815.891 694.711,832.224 703,847.5C 708.423,855.345 714.089,863.011 720,870.5C 728.356,877.858 736.356,885.524 744,893.5C 745.366,895.37 746.533,897.37 747.5,899.5C 717.892,886.378 697.058,864.378 685,833.5C 680.71,822.216 678.543,810.55 678.5,798.5 Z"/></g>
<g><path style="opacity:1" fill="#acacac" d="M 530.5,882.5 C 536.36,882.717 542.027,883.383 547.5,884.5C 545.533,892.097 544.866,900.097 545.5,908.5C 542.477,908.643 539.143,908.643 535.5,908.5C 534.07,908.579 532.736,908.246 531.5,907.5C 530.502,899.193 530.169,890.86 530.5,882.5 Z"/></g>
<g><path style="opacity:1" fill="#111111" d="M 547.5,884.5 C 551.215,884.423 554.881,884.756 558.5,885.5C 558.5,893.167 558.5,900.833 558.5,908.5C 554.167,908.5 549.833,908.5 545.5,908.5C 544.866,900.097 545.533,892.097 547.5,884.5 Z"/></g>
<g><path style="opacity:1" fill="#686868" d="M 487.5,878.5 C 489.764,879.219 492.097,879.552 494.5,879.5C 494.83,886.532 494.497,893.532 493.5,900.5C 491.618,899.907 489.785,899.24 488,898.5C 487.5,891.842 487.334,885.175 487.5,878.5 Z"/></g>
<g><path style="opacity:1" fill="#cdcdcd" d="M 559.5,885.5 C 563.798,886.2 568.131,886.533 572.5,886.5C 572.175,894.352 572.508,902.018 573.5,909.5C 577.545,911.177 581.878,911.844 586.5,911.5C 584.167,912.167 581.833,912.833 579.5,913.5C 572.407,913.31 565.407,912.643 558.5,911.5C 559.442,902.887 559.775,894.221 559.5,885.5 Z"/></g>
<g><path style="opacity:1" fill="#0c0c0c" d="M 656.5,886.5 C 659.833,886.5 663.167,886.5 666.5,886.5C 666.5,894.167 666.5,901.833 666.5,909.5C 661.833,909.5 657.167,909.5 652.5,909.5C 652.5,902.167 652.5,894.833 652.5,887.5C 654.099,887.768 655.432,887.434 656.5,886.5 Z"/></g>
<g><path style="opacity:1" fill="#707070" d="M 341.5,885.5 C 339.704,887.9 337.37,889.567 334.5,890.5C 336.296,888.1 338.63,886.433 341.5,885.5 Z"/></g>
<g><path style="opacity:1" fill="#0c0c0c" d="M 626.5,888.5 C 626.5,895.833 626.5,903.167 626.5,910.5C 621.833,910.5 617.167,910.5 612.5,910.5C 612.5,903.167 612.5,895.833 612.5,888.5C 617.167,888.5 621.833,888.5 626.5,888.5 Z"/></g>
<g><path style="opacity:1" fill="#141414" d="M 572.5,886.5 C 577.119,887.314 581.786,887.647 586.5,887.5C 586.5,894.833 586.5,902.167 586.5,909.5C 582.167,909.5 577.833,909.5 573.5,909.5C 572.508,902.018 572.175,894.352 572.5,886.5 Z"/></g>
<g><path style="opacity:1" fill="#545454" d="M 586.5,887.5 C 587.833,895.5 587.833,903.5 586.5,911.5C 581.878,911.844 577.545,911.177 573.5,909.5C 577.833,909.5 582.167,909.5 586.5,909.5C 586.5,902.167 586.5,894.833 586.5,887.5 Z"/></g>
<g><path style="opacity:1" fill="#6a6a6a" d="M 656.5,886.5 C 655.432,887.434 654.099,887.768 652.5,887.5C 652.5,894.833 652.5,902.167 652.5,909.5C 651.508,902.018 651.175,894.352 651.5,886.5C 653.167,886.5 654.833,886.5 656.5,886.5 Z"/></g>
<g><path style="opacity:1" fill="#717171" d="M 626.5,888.5 C 621.833,888.5 617.167,888.5 612.5,888.5C 612.5,895.833 612.5,903.167 612.5,910.5C 617.167,910.5 621.833,910.5 626.5,910.5C 621.695,911.487 616.695,911.821 611.5,911.5C 611.5,903.5 611.5,895.5 611.5,887.5C 616.695,887.179 621.695,887.513 626.5,888.5 Z"/></g>
<g><path style="opacity:1" fill="#808080" d="M 303.5,902.5 C 306.287,903.477 309.287,903.81 312.5,903.5C 315.522,907.521 319.189,910.855 323.5,913.5C 318.418,914.25 313.751,916.083 309.5,919C 310.416,919.278 311.082,919.778 311.5,920.5C 310.07,920.579 308.736,920.246 307.5,919.5C 306.833,927.167 306.167,934.833 305.5,942.5C 303.587,941.627 301.753,940.627 300,939.5C 299.333,929.167 299.333,918.833 300,908.5C 300.424,905.975 301.59,903.975 303.5,902.5 Z"/></g>
<g><path style="opacity:1" fill="#828282" d="M 558.5,885.5 C 558.833,885.5 559.167,885.5 559.5,885.5C 559.775,894.221 559.442,902.887 558.5,911.5C 550.604,911.235 542.937,910.235 535.5,908.5C 539.143,908.643 542.477,908.643 545.5,908.5C 549.833,908.5 554.167,908.5 558.5,908.5C 558.5,900.833 558.5,893.167 558.5,885.5 Z"/></g>
<g><path style="opacity:1" fill="#fbfbfb" d="M 323.5,913.5 C 378.681,924.702 434.014,925.369 489.5,915.5C 495.323,918.108 501.323,920.108 507.5,921.5C 506.833,922.167 506.167,922.833 505.5,923.5C 502.484,924.059 499.484,924.725 496.5,925.5C 495.502,933.472 495.169,941.472 495.5,949.5C 489.157,950.085 482.824,950.751 476.5,951.5C 476.5,944.167 476.5,936.833 476.5,929.5C 472.5,929.5 468.5,929.5 464.5,929.5C 464.5,937.5 464.5,945.5 464.5,953.5C 457.191,954.248 449.858,954.582 442.5,954.5C 442.5,946.833 442.5,939.167 442.5,931.5C 437.968,931.182 433.634,931.515 429.5,932.5C 429.5,940.167 429.5,947.833 429.5,955.5C 421.5,955.5 413.5,955.5 405.5,955.5C 405.5,947.833 405.5,940.167 405.5,932.5C 401.5,932.5 397.5,932.5 393.5,932.5C 393.5,940.167 393.5,947.833 393.5,955.5C 386.151,955.451 378.817,955.118 371.5,954.5C 371.5,946.5 371.5,938.5 371.5,930.5C 368.833,930.5 366.167,930.5 363.5,930.5C 355.639,929.506 347.639,928.506 339.5,927.5C 335.888,926.578 332.221,925.911 328.5,925.5C 325.257,924.51 321.924,923.51 318.5,922.5C 316.035,922.233 313.701,921.566 311.5,920.5C 311.082,919.778 310.416,919.278 309.5,919C 313.751,916.083 318.418,914.25 323.5,913.5 Z"/></g>
<g><path style="opacity:1" fill="#9d9d9d" d="M 318.5,922.5 C 321.924,923.51 325.257,924.51 328.5,925.5C 328.167,925.5 327.833,925.5 327.5,925.5C 327.152,933.057 326.152,940.39 324.5,947.5C 322.5,947.167 320.5,946.833 318.5,946.5C 318.5,938.5 318.5,930.5 318.5,922.5 Z"/></g>
<g><path style="opacity:1" fill="#4b4b4b" d="M 506.5,923.5 C 507.492,930.982 507.825,938.648 507.5,946.5C 508.5,946.5 509.5,946.5 510.5,946.5C 509.432,947.434 508.099,947.768 506.5,947.5C 506.5,939.5 506.5,931.5 506.5,923.5 Z"/></g>
<g><path style="opacity:1" fill="#a2a2a2" d="M 523.5,924.5 C 525.45,929.735 526.117,935.402 525.5,941.5C 523.55,936.265 522.883,930.598 523.5,924.5 Z"/></g>
<g><path style="opacity:1" fill="#cecece" d="M 339.5,927.5 C 347.639,928.506 355.639,929.506 363.5,930.5C 362.167,930.5 360.833,930.5 359.5,930.5C 359.5,938.167 359.5,945.833 359.5,953.5C 352.891,952.341 346.224,951.674 339.5,951.5C 339.5,943.5 339.5,935.5 339.5,927.5 Z"/></g>
<g><path style="opacity:1" fill="#747474" d="M 429.5,932.5 C 433.634,931.515 437.968,931.182 442.5,931.5C 442.5,939.167 442.5,946.833 442.5,954.5C 441.508,947.352 441.175,940.019 441.5,932.5C 437.5,932.5 433.5,932.5 429.5,932.5 Z"/></g>
<g><path style="opacity:1" fill="#d0d0d0" d="M 507.5,921.5 C 508.5,921.5 509.5,921.5 510.5,921.5C 510.5,929.833 510.5,938.167 510.5,946.5C 509.5,946.5 508.5,946.5 507.5,946.5C 507.825,938.648 507.492,930.982 506.5,923.5C 506.167,923.5 505.833,923.5 505.5,923.5C 506.167,922.833 506.833,922.167 507.5,921.5 Z"/></g>
<g><path style="opacity:1" fill="#575757" d="M 523.5,924.5 C 522.883,930.598 523.55,936.265 525.5,941.5C 524.791,942.404 523.791,942.737 522.5,942.5C 522.177,936.31 522.51,930.31 523.5,924.5 Z"/></g>
<g><path style="opacity:1" fill="#5a5a5a" d="M 327.5,925.5 C 327.5,933.167 327.5,940.833 327.5,948.5C 326.209,948.737 325.209,948.404 324.5,947.5C 326.152,940.39 327.152,933.057 327.5,925.5 Z"/></g>
</svg>
